<?xml version="1.0" encoding="UTF-8"?>
<!-- Generator: visioncortex VTracer 0.6.3 -->
<svg version="1.1" xmlns="http://www.w3.org/2000/svg" width="1280" height="1280">
<path d="M0 0 C422.4 0 844.8 0 1280 0 C1280 422.4 1280 844.8 1280 1280 C857.6 1280 435.2 1280 0 1280 C0 857.6 0 435.2 0 0 Z " fill="#FDFDFD" transform="translate(0,0)"/>
<path d="M0 0 C4.47 0.01 8.95 0.01 13.42 0 C20.92 0 28.41 0.01 35.9 0.04 C44.48 0.06 53.06 0.07 61.64 0.05 C70.01 0.04 78.39 0.05 86.76 0.06 C90.27 0.07 93.78 0.07 97.29 0.06 C122.54 0.04 147.22 0.72 171.82 7 C175.41 7.92 179 8.76 182.63 9.5 C186.61 10.37 190.09 11.87 193.82 13.5 C195.44 14 197.07 14.48 198.7 14.94 C203.63 16.38 208.17 18.33 212.82 20.5 C214.32 21.17 215.82 21.84 217.32 22.5 C218.43 23 218.43 23 219.56 23.5 C221.08 24.18 222.61 24.85 224.14 25.5 C230.99 28.48 237.1 31.93 243.13 36.34 C245.56 38.01 248.16 39.23 250.82 40.5 C255.46 43.08 259.57 46.27 263.76 49.5 C264.88 50.37 264.88 50.37 266.02 51.25 C267.56 52.43 269.09 53.62 270.62 54.8 C272.62 56.35 274.64 57.89 276.66 59.42 C288.19 68.21 297.85 78.08 306.82 89.5 C307.77 90.71 308.73 91.92 309.68 93.13 C312 96.07 314.31 99.02 316.62 101.97 C317.71 103.37 318.83 104.75 319.95 106.13 C321.74 108.41 323.4 110.72 325.01 113.13 C325.77 114.26 325.77 114.26 326.55 115.42 C327.82 117.5 327.82 117.5 328.82 120.5 C329.42 121.06 330.02 121.62 330.63 122.19 C332.93 124.62 334.21 127.04 335.62 130.04 C337.08 133.05 338.7 135.95 340.32 138.88 C342.93 143.68 345.14 148.44 347 153.58 C347.76 155.69 347.76 155.69 349.82 157.5 C350.49 159.18 351.1 160.88 351.66 162.6 C352 163.63 352.34 164.66 352.69 165.72 C353.04 166.81 353.4 167.89 353.76 169 C354.28 170.58 354.28 170.58 354.81 172.19 C356.71 177.99 358.53 183.8 360.21 189.66 C360.67 191.5 360.67 191.5 361.82 192.5 C362.16 194.2 362.46 195.9 362.72 197.61 C362.89 198.65 363.06 199.7 363.23 200.78 C363.58 202.99 363.93 205.2 364.27 207.41 C364.44 208.46 364.61 209.52 364.78 210.61 C364.94 211.57 365.09 212.53 365.24 213.52 C365.77 216.58 365.77 216.58 366.85 219.74 C368.06 224.43 368.22 228.85 368.35 233.67 C368.42 235.64 368.49 237.6 368.56 239.56 C368.66 242.64 368.76 245.71 368.85 248.79 C368.94 251.77 369.05 254.75 369.16 257.73 C369.19 259.11 369.19 259.11 369.23 260.52 C369.43 266.59 369.43 266.59 372.82 271.5 C373.66 273.72 373.66 273.72 374.32 276 C375.37 279.39 376.52 281.77 378.82 284.5 C378.82 285.16 378.82 285.82 378.82 286.5 C379.66 286.84 379.66 286.84 380.51 287.19 C383.47 288.87 385.44 291.07 387.82 293.5 C399.21 304.87 412.12 305.62 427.42 305.68 C429.88 305.7 432.33 305.73 434.78 305.75 C438.61 305.79 442.43 305.82 446.26 305.83 C470.78 305.93 487.89 307.6 505.75 325.43 C509.03 328.97 510.58 331.5 510.82 336.5 C511.81 336.83 512.8 337.16 513.82 337.5 C516.33 345.46 516.97 353.53 516.95 361.83 C516.96 363.02 516.96 363.02 516.96 364.25 C516.97 366.9 516.97 369.56 516.97 372.22 C516.97 374.13 516.97 376.05 516.98 377.96 C516.98 383.16 516.99 388.35 516.99 393.54 C516.99 396.8 516.99 400.06 516.99 403.32 C517 414.72 517.01 426.13 517.01 437.54 C517 448.1 517.02 458.66 517.03 469.22 C517.04 478.34 517.05 487.45 517.05 496.56 C517.05 501.99 517.05 507.41 517.06 512.83 C517.13 551.58 517.13 551.58 515.99 569.13 C515.92 570.24 515.85 571.35 515.78 572.49 C515.29 578.83 514.18 584.76 512.5 590.89 C511.27 595.62 510.93 600.4 510.45 605.25 C509.79 608.66 508.91 609.85 506.82 612.5 C505.99 615.33 505.99 615.33 505.45 618.44 C503.95 625.46 501.54 631.89 498.82 638.5 C498.47 639.4 498.12 640.3 497.76 641.23 C496.82 643.5 496.82 643.5 495.32 645.88 C493.63 648.58 493.63 648.58 492.82 652.25 C492.49 653.33 492.16 654.4 491.82 655.5 C490.83 655.83 489.84 656.16 488.82 656.5 C488.16 658.48 488.16 658.48 487.88 660.82 C487.09 665.04 485.97 666.55 482.82 669.5 C481.96 671.51 481.27 673.52 480.63 675.6 C479.69 677.81 478.52 678.81 476.82 680.5 C474.76 683.75 472.81 687.06 470.86 690.38 C469.02 693.19 467.22 695.19 464.82 697.5 C463.58 699.15 462.37 700.82 461.2 702.5 C455.21 710.83 449.02 719.05 441.07 725.6 C438.69 727.61 436.45 729.72 434.19 731.86 C427.06 738.58 419.59 744.47 411.32 749.75 C408.77 751.34 408.77 751.34 407.32 753.57 C405.25 756.24 402.86 757.1 399.82 758.5 C397.13 760.05 394.57 761.68 392.01 763.44 C389.02 765.37 386.05 766.95 382.85 768.48 C380.74 769.51 380.74 769.51 378.53 770.9 C375.26 772.83 371.88 774.46 368.45 776.07 C367.81 776.37 367.18 776.67 366.52 776.99 C363.37 778.46 360.33 779.7 356.97 780.59 C353.75 781.25 353.75 781.25 351.82 783.5 C348.63 784.35 345.41 784.97 342.18 785.63 C338.81 786.38 338.81 786.38 335.91 788 C332.18 789.82 328.7 790.43 324.63 791.07 C318.94 791.94 318.94 791.94 313.82 794.5 C287.83 800.7 258.75 799.81 232.2 799.76 C229.49 799.76 226.78 799.77 224.07 799.77 C217.55 799.78 211.03 799.78 204.51 799.77 C199.19 799.77 193.88 799.77 188.57 799.77 C187.81 799.77 187.04 799.77 186.25 799.77 C184.7 799.77 183.15 799.77 181.59 799.77 C167.12 799.78 152.64 799.77 138.17 799.76 C125.83 799.75 113.48 799.76 101.14 799.77 C86.71 799.78 72.28 799.78 57.85 799.77 C56.3 799.77 54.75 799.77 53.2 799.77 C52.06 799.77 52.06 799.77 50.9 799.77 C45.61 799.77 40.32 799.77 35.04 799.78 C28.57 799.78 22.1 799.78 15.63 799.77 C12.34 799.77 9.06 799.76 5.78 799.77 C-64.12 799.88 -64.12 799.88 -75.18 792.5 C-78.48 791.82 -81.78 791.26 -85.11 790.74 C-89.64 789.97 -93.06 788.63 -97.18 786.5 C-99.29 785.96 -101.42 785.48 -103.55 785.07 C-108.22 784.05 -112.08 782.83 -116.24 780.53 C-118.42 779.38 -120.63 778.51 -122.93 777.63 C-132.53 773.86 -141.42 768.91 -150.18 763.5 C-151.89 762.48 -153.6 761.46 -155.3 760.44 C-156.93 759.46 -158.56 758.48 -160.18 757.5 C-161.3 756.84 -161.3 756.84 -162.45 756.16 C-163.49 755.52 -163.49 755.52 -164.55 754.88 C-165.46 754.33 -165.46 754.33 -166.39 753.78 C-168.18 752.5 -168.18 752.5 -169.94 750.7 C-172.92 747.78 -176.24 745.45 -179.62 743 C-187.32 737.32 -194.32 731.17 -201.18 724.5 C-201.73 723.98 -202.28 723.46 -202.84 722.92 C-209.91 716.18 -216.22 709.24 -222.02 701.38 C-223.81 699 -225.64 696.78 -227.62 694.57 C-230.06 691.65 -231.56 688.91 -233.18 685.5 C-233.84 685.17 -234.5 684.84 -235.18 684.5 C-235.65 683.37 -236.13 682.24 -236.62 681.07 C-237.88 677.31 -237.88 677.31 -241.18 675.5 C-241.49 674.39 -241.8 673.28 -242.12 672.13 C-242.85 668.51 -242.85 668.51 -245.12 666.63 C-247.78 663.89 -248.39 661.26 -249.37 657.63 C-250.04 655.44 -250.04 655.44 -251.71 653.98 C-253.93 651.75 -254.02 649.36 -254.55 646.34 C-255.1 644.12 -255.1 644.12 -258.18 642.5 C-258.77 640.66 -258.77 640.66 -259.12 638.44 C-259.75 635.14 -260.58 632.4 -262.05 629.38 C-264.56 624.09 -265.85 618.52 -267.25 612.86 C-268 609.68 -268 609.68 -269.17 607.63 C-270.35 605.14 -270.77 602.9 -271.22 600.19 C-271.38 599.18 -271.55 598.17 -271.73 597.12 C-271.98 595.55 -271.98 595.55 -272.24 593.94 C-272.59 591.86 -272.93 589.77 -273.28 587.69 C-273.5 586.3 -273.5 586.3 -273.73 584.89 C-274.15 582.37 -274.15 582.37 -275.18 579.5 C-277.54 561.46 -277.48 543.17 -277.44 525.01 C-277.44 521.33 -277.44 517.65 -277.45 513.97 C-277.46 506.79 -277.46 499.62 -277.45 492.45 C-277.45 486.6 -277.45 480.76 -277.45 474.92 C-277.45 473.66 -277.45 473.66 -277.45 472.38 C-277.45 470.68 -277.45 468.98 -277.45 467.27 C-277.46 451.38 -277.45 435.48 -277.44 419.58 C-277.43 406 -277.43 392.43 -277.44 378.85 C-277.45 363 -277.46 347.16 -277.45 331.31 C-277.45 329.61 -277.45 327.92 -277.45 326.22 C-277.45 325.39 -277.45 324.55 -277.45 323.69 C-277.44 317.87 -277.45 312.05 -277.45 306.23 C-277.46 299.12 -277.46 292.01 -277.45 284.89 C-277.44 281.28 -277.44 277.66 -277.45 274.05 C-277.47 260.11 -277.27 246.24 -276.29 232.33 C-276.21 231.2 -276.13 230.06 -276.05 228.89 C-275.97 227.84 -275.89 226.8 -275.8 225.72 C-275.73 224.81 -275.66 223.89 -275.59 222.95 C-275.17 220.43 -274.37 218.74 -273.18 216.5 C-272.79 214.18 -272.46 211.84 -272.18 209.5 C-271.75 206.6 -271.28 203.71 -270.8 200.82 C-270.63 199.7 -270.63 199.7 -270.46 198.56 C-269.75 194.34 -268.81 191.81 -266.18 188.5 C-265.57 185.84 -265.57 185.84 -265.3 182.94 C-264.51 177.41 -262.81 173.1 -260.34 168.12 C-258.91 164.89 -258.25 161.77 -257.73 158.28 C-257.18 156.5 -257.18 156.5 -254.18 154.5 C-253.27 152.23 -253.27 152.23 -252.68 149.63 C-251.74 145.87 -250.57 143.54 -248.18 140.5 C-247.68 139.33 -247.19 138.15 -246.68 136.94 C-245.18 133.5 -245.18 133.5 -243.62 132 C-241.85 130.39 -241.85 130.39 -241.18 126.94 C-240.18 123.5 -240.18 123.5 -237.18 121.5 C-236.16 119.51 -235.16 117.51 -234.18 115.5 C-233.18 114.5 -232.18 113.5 -231.18 112.5 C-230.71 111.53 -230.23 110.57 -229.74 109.57 C-228.16 106.46 -226.65 104.91 -224.18 102.5 C-223.27 101.33 -222.37 100.14 -221.49 98.94 C-216.17 91.72 -210.59 84.79 -204.18 78.5 C-203.28 77.58 -202.38 76.66 -201.45 75.71 C-191.81 65.85 -181.4 56.93 -169.87 49.32 C-167.25 47.69 -167.25 47.69 -165.68 45.94 C-163.5 43.85 -160.89 42.83 -158.18 41.5 C-156.83 40.52 -155.5 39.52 -154.18 38.5 C-152.52 37.49 -150.86 36.49 -149.18 35.5 C-148.33 34.97 -147.49 34.43 -146.62 33.88 C-144.18 32.5 -144.18 32.5 -142.05 32 C-140.09 31.65 -140.09 31.65 -138.82 30.09 C-136.98 28.31 -135.41 27.55 -133.05 26.57 C-132.26 26.23 -131.46 25.89 -130.64 25.54 C-129.42 25.03 -129.42 25.03 -128.18 24.5 C-126.68 23.84 -125.18 23.17 -123.68 22.5 C-122.93 22.17 -122.18 21.84 -121.41 21.5 C-119.97 20.86 -118.53 20.19 -117.11 19.5 C-111.38 16.79 -105.55 15.12 -99.41 13.53 C-96.21 12.67 -96.21 12.67 -93.8 10.98 C-90.18 8.94 -86.63 8.53 -82.55 7.94 C-76.57 7.13 -76.57 7.13 -71.18 4.5 C-66.14 3.5 -61.02 2.99 -55.92 2.41 C-54.76 2.28 -54.76 2.28 -53.57 2.14 C-35.71 0.14 -17.95 -0.07 0 0 Z " fill="#000002" transform="translate(519.1798648834229,239.4956295490265)"/>
<path d="M0 0 C1.63 -0 1.63 -0 3.28 -0.01 C5.05 -0.01 5.05 -0.01 6.86 -0.01 C8.75 -0.01 8.75 -0.01 10.68 -0.01 C14.17 -0.02 17.67 -0.02 21.16 -0.02 C24.93 -0.02 28.7 -0.02 32.47 -0.03 C39.86 -0.04 47.24 -0.04 54.63 -0.04 C60.63 -0.04 66.64 -0.04 72.64 -0.04 C89.66 -0.05 106.69 -0.06 123.71 -0.06 C124.63 -0.06 125.55 -0.06 126.49 -0.06 C127.41 -0.06 128.33 -0.06 129.27 -0.06 C144.16 -0.06 159.05 -0.07 173.94 -0.08 C189.24 -0.09 204.53 -0.1 219.82 -0.1 C228.4 -0.1 236.99 -0.1 245.57 -0.11 C252.88 -0.12 260.19 -0.12 267.49 -0.12 C271.22 -0.11 274.95 -0.11 278.68 -0.12 C282.72 -0.13 286.76 -0.13 290.81 -0.12 C291.98 -0.12 293.16 -0.13 294.37 -0.13 C308.39 -0.07 317.86 4.08 328.1 13.68 C337.94 23.91 342.17 34.45 342.02 48.57 C342.04 49.62 342.07 50.68 342.09 51.76 C342.08 61.51 339.11 69.89 332.46 77.13 C331.67 78.12 331.67 78.12 330.86 79.13 C327.3 83.51 325.01 85.58 319.46 87.13 C319.17 87.79 318.88 88.45 318.58 89.13 C317.46 91.13 317.46 91.13 315.67 91.76 C314.27 92.08 312.85 92.38 311.43 92.64 C309.16 93.09 309.16 93.09 306.46 95.13 C304.06 95.38 304.06 95.38 301.15 95.38 C300.04 95.39 298.93 95.39 297.79 95.4 C295.96 95.4 295.96 95.4 294.09 95.39 C292.8 95.39 291.5 95.4 290.17 95.4 C286.57 95.41 282.97 95.41 279.37 95.4 C275.49 95.4 271.61 95.41 267.73 95.42 C260.13 95.43 252.52 95.43 244.92 95.43 C238.74 95.43 232.57 95.43 226.39 95.44 C225.07 95.44 225.07 95.44 223.73 95.44 C221.94 95.44 220.16 95.44 218.37 95.44 C201.63 95.45 184.89 95.45 168.15 95.44 C152.82 95.44 137.5 95.45 122.17 95.47 C106.45 95.49 90.72 95.5 75 95.49 C66.16 95.49 57.33 95.49 48.5 95.51 C40.98 95.52 33.46 95.52 25.94 95.51 C22.1 95.5 18.26 95.5 14.42 95.51 C10.27 95.53 6.11 95.52 1.95 95.5 C0.73 95.51 -0.49 95.52 -1.74 95.53 C-2.85 95.52 -3.96 95.51 -5.11 95.5 C-6.07 95.5 -7.03 95.5 -8.02 95.5 C-10.98 95.06 -12.28 94.05 -14.54 92.13 C-16.72 91.29 -16.72 91.29 -18.98 90.69 C-25.27 88.7 -29 84.79 -33.54 80.13 C-34.37 79.37 -35.19 78.6 -36.04 77.82 C-43.35 69.96 -47.6 59.57 -47.92 48.75 C-47.5 44.73 -46.66 41 -45.54 37.13 C-45.27 35.95 -45.27 35.95 -44.99 34.75 C-41.95 22.76 -33.47 13.24 -23.54 6.13 C-15.98 1.99 -8.62 0.01 0 0 Z " fill="#FDFDFD" transform="translate(492.5417079925537,738.8713655471802)"/>
<path d="M0 0 C1.54 -0 3.08 -0.01 4.63 -0.01 C8.78 -0.02 12.94 -0.02 17.1 -0.01 C21.46 -0 25.83 -0.01 30.2 -0.01 C37.53 -0.02 44.86 -0.01 52.19 -0 C60.65 0.01 69.1 0.01 77.56 -0.01 C84.84 -0.01 92.12 -0.02 99.41 -0.01 C103.74 -0.01 108.08 -0.01 112.42 -0.01 C116.5 -0.02 120.58 -0.02 124.66 -0 C126.16 -0 127.65 -0 129.14 -0.01 C149.55 -0.06 149.55 -0.06 156.41 5.26 C157.31 5.53 158.22 5.8 159.16 6.07 C165.06 8.23 169.72 11.54 172.41 17.26 C173.55 18.31 173.55 18.31 174.72 19.38 C180.92 26.02 183.2 33.29 183.41 42.26 C184.07 42.26 184.73 42.26 185.41 42.26 C187.66 45.63 187.58 46.24 187.09 50.07 C186.98 50.96 186.87 51.85 186.76 52.76 C186.64 53.58 186.53 54.41 186.41 55.26 C186.26 56.35 186.12 57.45 185.97 58.57 C185.39 61.33 184.48 63.66 183.41 66.26 C183.1 67.5 182.79 68.73 182.47 70.01 C182.12 71.08 181.77 72.15 181.41 73.26 C180.42 73.59 179.43 73.92 178.41 74.26 C178.22 75.23 178.03 76.2 177.84 77.2 C176.38 83.24 171.03 87.44 166.41 91.26 C164.41 92.26 162.41 93.26 160.41 94.26 C159.75 95.25 159.09 96.24 158.41 97.26 C156.38 97.67 156.38 97.67 154.03 97.76 C150.52 97.87 150.52 97.87 147.67 99.76 C144.61 101.78 142.49 101.64 138.84 101.65 C137.85 101.66 137.85 101.66 136.84 101.67 C134.64 101.69 132.43 101.68 130.23 101.68 C128.64 101.69 127.06 101.69 125.48 101.7 C121.18 101.73 116.88 101.73 112.58 101.73 C108.98 101.73 105.38 101.74 101.79 101.74 C93.29 101.76 84.79 101.77 76.29 101.76 C67.55 101.75 58.81 101.78 50.07 101.81 C42.55 101.84 35.03 101.86 27.51 101.85 C23.02 101.85 18.54 101.85 14.06 101.88 C9.83 101.9 5.6 101.9 1.37 101.88 C-0.17 101.88 -1.71 101.88 -3.25 101.9 C-20.12 102.04 -35.19 97.52 -47.66 85.57 C-49.38 83.81 -50.52 82.41 -51.59 80.18 C-52.57 77.93 -52.57 77.93 -55.59 76.26 C-56.47 74.17 -56.47 74.17 -57.16 71.76 C-58.19 68.13 -58.19 68.13 -60.59 65.26 C-63.78 51.31 -60.85 37.84 -54.59 25.26 C-53.07 23 -51.49 21.25 -49.59 19.26 C-49.02 18.45 -48.44 17.65 -47.84 16.82 C-34.83 2 -18.65 -0.06 0 0 Z " fill="#FDFDFD" transform="translate(504.593994140625,447.7412109375)"/>
</svg>
