<?xml version="1.0" encoding="UTF-8"?>
<!-- Generator: visioncortex VTracer 0.6.3 -->
<svg version="1.1" xmlns="http://www.w3.org/2000/svg" width="1138" height="1280">
<path d="M0 0 C3.2 0.06 6.4 0.08 9.6 0.09 C11.65 0.11 13.7 0.13 15.74 0.16 C17.17 0.17 17.17 0.17 18.62 0.18 C19.51 0.2 20.39 0.22 21.3 0.24 C22.07 0.25 22.84 0.27 23.64 0.28 C26.05 0.6 27.65 1.43 29.78 2.56 C31.78 2.91 33.78 3.24 35.78 3.56 C44.5 6.44 52.4 11 60.31 15.57 C62.78 16.99 65.22 18.34 67.78 19.56 C67.78 20.22 67.78 20.88 67.78 21.56 C68.51 21.67 69.24 21.78 69.99 21.9 C72.93 22.6 74.88 23.6 77.43 25.18 C78.72 25.97 78.72 25.97 80.04 26.77 C80.92 27.32 81.81 27.87 82.72 28.44 C90.58 33.3 90.58 33.3 98.78 37.56 C98.78 38.22 98.78 38.88 98.78 39.56 C99.55 39.77 100.33 39.98 101.12 40.19 C106.17 42.08 110.64 44.78 115.28 47.5 C123.41 52.26 123.41 52.26 131.78 56.56 C131.78 57.22 131.78 57.88 131.78 58.56 C134.26 59.06 134.26 59.06 136.78 59.56 C136.78 60.22 136.78 60.88 136.78 61.56 C137.45 61.64 138.12 61.71 138.82 61.79 C142.77 62.82 145.79 64.77 149.22 66.94 C153.66 69.7 158.06 72.3 162.78 74.56 C162.78 75.22 162.78 75.88 162.78 76.56 C163.51 76.67 164.24 76.79 164.99 76.9 C167.91 77.59 169.83 78.57 172.36 80.14 C173.21 80.66 174.06 81.18 174.94 81.72 C175.82 82.27 176.69 82.81 177.59 83.38 C183.55 87.06 189.47 90.53 195.78 93.56 C195.78 94.22 195.78 94.88 195.78 95.56 C196.51 95.67 197.24 95.79 197.99 95.9 C200.91 96.59 202.83 97.57 205.36 99.14 C206.21 99.66 207.06 100.18 207.94 100.72 C208.82 101.27 209.69 101.81 210.59 102.38 C216.55 106.06 222.47 109.53 228.78 112.56 C228.78 113.22 228.78 113.88 228.78 114.56 C231.26 115.06 231.26 115.06 233.78 115.56 C233.78 116.22 233.78 116.88 233.78 117.56 C234.34 117.67 234.9 117.78 235.47 117.9 C240.15 119.25 244.27 122.08 248.47 124.5 C249.44 125.05 250.42 125.6 251.42 126.17 C252.35 126.7 253.28 127.23 254.23 127.78 C255.08 128.26 255.93 128.75 256.8 129.25 C258.78 130.56 258.78 130.56 259.78 132.56 C261.45 132.9 263.11 133.23 264.78 133.56 C267.06 134.71 267.06 134.71 269.36 136.14 C270.21 136.66 271.06 137.18 271.94 137.72 C272.82 138.27 273.69 138.81 274.59 139.38 C280.55 143.06 286.47 146.53 292.78 149.56 C292.78 150.22 292.78 150.88 292.78 151.56 C294.43 151.89 296.08 152.22 297.78 152.56 C297.78 153.22 297.78 153.88 297.78 154.56 C298.45 154.64 299.12 154.71 299.82 154.79 C303.77 155.82 306.79 157.77 310.22 159.94 C314.66 162.7 319.06 165.3 323.78 167.56 C323.78 168.22 323.78 168.88 323.78 169.56 C325.1 169.97 325.1 169.97 326.44 170.38 C329.63 171.51 332.33 172.85 335.26 174.53 C336.26 175.1 337.26 175.67 338.29 176.26 C339.32 176.86 340.35 177.45 341.41 178.06 C343.46 179.24 345.52 180.42 347.57 181.59 C348.47 182.12 349.38 182.64 350.31 183.17 C352.44 184.37 354.58 185.49 356.78 186.56 C356.78 187.22 356.78 187.88 356.78 188.56 C357.51 188.67 358.24 188.79 358.99 188.9 C361.91 189.59 363.83 190.57 366.36 192.14 C367.21 192.66 368.06 193.18 368.94 193.72 C369.82 194.27 370.69 194.81 371.59 195.38 C377.55 199.06 383.47 202.53 389.78 205.56 C389.78 206.22 389.78 206.88 389.78 207.56 C391.43 207.89 393.08 208.22 394.78 208.56 C394.78 209.22 394.78 209.88 394.78 210.56 C395.82 210.69 395.82 210.69 396.89 210.82 C400.48 211.74 402.98 213.37 406.09 215.38 C410.87 218.41 415.66 221.15 420.78 223.56 C420.78 224.22 420.78 224.88 420.78 225.56 C421.51 225.67 422.24 225.79 422.99 225.9 C425.91 226.59 427.83 227.57 430.36 229.14 C431.21 229.66 432.06 230.18 432.94 230.72 C433.82 231.27 434.69 231.81 435.59 232.38 C441.55 236.06 447.47 239.53 453.78 242.56 C453.78 243.22 453.78 243.88 453.78 244.56 C455.43 244.89 457.08 245.22 458.78 245.56 C458.78 246.22 458.78 246.88 458.78 247.56 C459.45 247.64 460.12 247.71 460.82 247.79 C464.77 248.82 467.79 250.77 471.22 252.94 C475.66 255.7 480.06 258.3 484.78 260.56 C484.78 261.22 484.78 261.88 484.78 262.56 C485.55 262.77 486.33 262.98 487.12 263.19 C492.17 265.08 496.64 267.78 501.28 270.5 C509.41 275.26 509.41 275.26 517.78 279.56 C517.78 280.22 517.78 280.88 517.78 281.56 C519.43 281.89 521.08 282.22 522.78 282.56 C522.78 283.22 522.78 283.88 522.78 284.56 C523.51 284.8 524.23 285.05 524.98 285.3 C528.15 286.73 530.13 288.44 532.66 290.81 C535.46 293.43 538.23 295.93 541.28 298.25 C547.7 303.64 552.18 311.66 556.78 318.56 C556.78 319.55 556.78 320.54 556.78 321.56 C557.44 321.56 558.1 321.56 558.78 321.56 C566.43 336.71 571.94 351.92 571.92 369.06 C571.92 370.02 571.92 370.97 571.92 371.95 C571.93 375.16 571.93 378.37 571.93 381.58 C571.93 383.9 571.94 386.22 571.94 388.54 C571.95 394.25 571.95 399.97 571.96 405.68 C571.96 412.53 571.97 419.37 571.98 426.22 C572 442.76 572.01 459.31 572.02 475.85 C572.02 483.68 572.03 491.52 572.03 499.35 C572.05 526.16 572.06 552.97 572.07 579.78 C572.07 581.47 572.07 583.15 572.07 584.83 C572.07 586.09 572.07 586.09 572.07 587.36 C572.07 591.59 572.08 595.82 572.08 600.05 C572.08 600.89 572.08 601.73 572.08 602.59 C572.09 629.79 572.11 656.98 572.14 684.18 C572.18 712.94 572.19 741.71 572.2 770.47 C572.2 773.63 572.2 776.79 572.2 779.95 C572.2 780.73 572.2 781.51 572.2 782.31 C572.2 794.81 572.22 807.32 572.24 819.82 C572.26 832.4 572.26 844.97 572.25 857.55 C572.25 864.36 572.25 871.17 572.27 877.98 C572.29 884.22 572.29 890.46 572.27 896.7 C572.27 898.95 572.27 901.2 572.29 903.45 C572.41 927.59 567.48 949.83 552.78 969.56 C552.12 969.56 551.46 969.56 550.78 969.56 C550.73 970.26 550.67 970.95 550.62 971.67 C549.49 975.58 547.14 977.99 544.41 980.88 C543.91 981.42 543.42 981.97 542.91 982.54 C541.6 983.95 540.19 985.26 538.78 986.56 C537.79 986.56 536.8 986.56 535.78 986.56 C535.51 987.16 535.24 987.77 534.96 988.39 C530.92 995.85 521.48 999.84 514.41 1003.81 C513.23 1004.48 512.05 1005.15 510.88 1005.82 C508.56 1007.14 506.23 1008.46 503.91 1009.78 C500.01 1012 496.14 1014.27 492.28 1016.56 C476.33 1025.99 460.22 1035.18 444.12 1044.35 C438.12 1047.78 432.16 1051.27 426.22 1054.78 C420.75 1058.01 415.24 1061.17 409.72 1064.31 C402.04 1068.68 394.4 1073.1 386.78 1077.56 C378.45 1082.43 370.1 1087.25 361.71 1092.02 C355.04 1095.83 348.41 1099.69 341.78 1103.56 C329.96 1110.47 318.09 1117.27 306.19 1124.04 C296.38 1129.61 286.6 1135.24 276.91 1141 C268.35 1146.09 259.71 1151.02 251.03 1155.9 C244.8 1159.41 238.62 1162.98 232.47 1166.62 C217.12 1175.7 201.62 1184.52 186.12 1193.35 C180.12 1196.78 174.16 1200.27 168.22 1203.78 C162.75 1207.01 157.24 1210.17 151.72 1213.31 C144.04 1217.68 136.4 1222.1 128.78 1226.56 C121.3 1230.94 113.81 1235.28 106.28 1239.56 C98.82 1243.81 91.39 1248.11 83.97 1252.44 C82.97 1253.02 81.97 1253.6 80.95 1254.19 C75.79 1257.2 70.65 1260.24 65.56 1263.35 C45.87 1275.28 29.54 1280.77 6.59 1280.91 C4.62 1280.93 2.64 1280.96 0.66 1280.99 C-17.82 1281.35 -33.45 1278.64 -49.55 1269.27 C-50.29 1268.85 -51.03 1268.42 -51.8 1267.98 C-53 1267.28 -53 1267.28 -54.22 1266.56 C-55.12 1266.04 -56.03 1265.52 -56.96 1264.98 C-62.04 1262.04 -67.11 1259.08 -72.17 1256.11 C-77.66 1252.88 -83.18 1249.71 -88.72 1246.56 C-97.27 1241.69 -105.78 1236.74 -114.28 1231.77 C-120.74 1228 -127.22 1224.26 -133.72 1220.56 C-141.25 1216.28 -148.74 1211.94 -156.22 1207.56 C-163.66 1203.21 -171.11 1198.89 -178.59 1194.62 C-194.92 1185.32 -211.19 1175.93 -227.41 1166.44 C-235.18 1161.89 -242.99 1157.41 -250.84 1153 C-259.32 1148.23 -267.72 1143.34 -276.08 1138.37 C-283.23 1134.13 -290.44 1129.99 -297.67 1125.88 C-303.15 1122.76 -308.6 1119.59 -314.03 1116.38 C-319.39 1113.2 -324.78 1110.1 -330.22 1107.06 C-335.55 1104.08 -340.84 1101.05 -346.09 1097.94 C-362.25 1088.38 -378.55 1079.07 -394.86 1069.78 C-401.03 1066.26 -407.16 1062.68 -413.27 1059.06 C-420.64 1054.72 -428.07 1050.48 -435.51 1046.26 C-445.53 1040.57 -455.5 1034.82 -465.41 1028.94 C-472.06 1024.98 -478.75 1021.11 -485.53 1017.38 C-493.52 1012.97 -501.43 1008.45 -509.25 1003.74 C-510.51 1002.98 -511.78 1002.23 -513.06 1001.49 C-536.25 988 -550.98 967.54 -562.22 943.56 C-562.57 941.57 -562.91 939.57 -563.22 937.56 C-564.21 936.08 -564.21 936.08 -565.22 934.56 C-566.43 927.63 -566.36 920.46 -566.34 913.44 C-566.35 912.48 -566.35 911.52 -566.35 910.52 C-566.35 907.32 -566.35 904.12 -566.35 900.92 C-566.35 898.59 -566.35 896.26 -566.35 893.94 C-566.35 887.56 -566.35 881.17 -566.35 874.79 C-566.35 868.62 -566.35 862.44 -566.35 856.26 C-566.36 842.84 -566.36 829.43 -566.35 816.02 C-566.35 804.28 -566.35 792.53 -566.35 780.79 C-566.35 780.02 -566.35 779.24 -566.35 778.43 C-566.35 775.27 -566.35 772.11 -566.35 768.94 C-566.36 739.28 -566.35 709.61 -566.35 679.94 C-566.34 653.6 -566.34 627.25 -566.35 600.91 C-566.35 571.29 -566.36 541.68 -566.35 512.07 C-566.35 508.91 -566.35 505.76 -566.35 502.6 C-566.35 501.82 -566.35 501.04 -566.35 500.24 C-566.35 488.51 -566.35 476.78 -566.36 465.05 C-566.36 451.71 -566.36 438.37 -566.35 425.02 C-566.35 418.22 -566.35 411.41 -566.35 404.6 C-566.35 398.37 -566.35 392.14 -566.35 385.9 C-566.35 383.65 -566.35 381.4 -566.35 379.15 C-566.38 348.91 -560.63 326.5 -541.22 302.56 C-540.43 301.51 -539.65 300.46 -538.84 299.38 C-534.7 294.94 -530.01 291.27 -525.22 287.56 C-524.06 286.66 -524.06 286.66 -522.88 285.75 C-517.27 281.61 -511.32 278.43 -505.15 275.24 C-499.5 272.3 -494.03 269.12 -488.59 265.81 C-480.24 260.73 -471.79 255.87 -463.26 251.1 C-457.96 248.14 -452.73 245.09 -447.54 241.95 C-444.24 239.98 -440.89 238.11 -437.53 236.25 C-432.24 233.3 -427.02 230.27 -421.84 227.12 C-416.33 223.78 -410.74 220.6 -405.09 217.5 C-399.89 214.64 -394.76 211.72 -389.72 208.56 C-383.93 204.94 -378 201.63 -372.01 198.34 C-367.18 195.68 -362.43 192.93 -357.72 190.06 C-351.54 186.3 -345.26 182.78 -338.93 179.3 C-333.34 176.22 -327.85 172.98 -322.4 169.67 C-318.99 167.6 -315.55 165.62 -312.03 163.75 C-306.8 160.95 -301.73 157.89 -296.66 154.81 C-289.41 150.43 -282.09 146.22 -274.66 142.14 C-269.32 139.21 -264.1 136.12 -258.9 132.96 C-254.07 130.03 -249.16 127.28 -244.22 124.56 C-237.98 121.13 -231.84 117.58 -225.76 113.89 C-220.64 110.78 -215.43 107.85 -210.19 104.94 C-205.69 102.42 -201.25 99.8 -196.84 97.12 C-190.62 93.35 -184.29 89.8 -177.92 86.3 C-172.45 83.28 -167.09 80.13 -161.76 76.89 C-156.64 73.78 -151.43 70.85 -146.19 67.94 C-141.69 65.42 -137.25 62.8 -132.84 60.12 C-127.37 56.8 -121.83 53.65 -116.22 50.56 C-110.76 47.56 -105.36 44.49 -100.03 41.25 C-92.63 36.74 -85.08 32.49 -77.51 28.25 C-72.17 25.26 -66.89 22.19 -61.64 19.02 C-57.7 16.65 -53.72 14.33 -49.72 12.06 C-48.96 11.62 -48.2 11.17 -47.42 10.71 C-31.99 2.02 -17.56 -0.35 0 0 Z M-562.22 340.56 C-561.22 342.56 -561.22 342.56 -561.22 342.56 Z M-563.22 343.56 C-562.22 345.56 -562.22 345.56 -562.22 345.56 Z M-564.22 346.56 C-563.22 349.56 -563.22 349.56 -563.22 349.56 Z " fill="#5F9AD3" transform="translate(566.21875,-0.5625)"/>
<path d="M0 0 C7.65 15.15 13.16 30.35 13.13 47.5 C13.14 48.45 13.14 49.41 13.14 50.39 C13.15 53.6 13.15 56.81 13.15 60.02 C13.15 62.34 13.15 64.66 13.16 66.98 C13.17 72.69 13.17 78.41 13.17 84.12 C13.18 90.97 13.19 97.81 13.19 104.66 C13.22 121.2 13.23 137.75 13.23 154.29 C13.24 162.12 13.24 169.95 13.25 177.78 C13.27 204.6 13.28 231.41 13.29 258.22 C13.29 259.9 13.29 261.59 13.29 263.27 C13.29 264.52 13.29 264.52 13.29 265.8 C13.29 270.03 13.29 274.26 13.3 278.49 C13.3 279.32 13.3 280.16 13.3 281.03 C13.3 308.22 13.33 335.42 13.36 362.62 C13.39 391.38 13.41 420.15 13.42 448.91 C13.42 452.07 13.42 455.23 13.42 458.39 C13.42 459.17 13.42 459.95 13.42 460.75 C13.42 473.25 13.44 485.75 13.46 498.26 C13.48 510.83 13.48 523.41 13.47 535.99 C13.47 542.8 13.47 549.61 13.49 556.41 C13.51 562.66 13.51 568.9 13.49 575.14 C13.49 577.39 13.49 579.64 13.51 581.89 C13.62 606.03 8.7 628.27 -6 648 C-6.66 648 -7.32 648 -8 648 C-8.05 648.69 -8.11 649.39 -8.16 650.11 C-9.29 654.01 -11.64 656.43 -14.38 659.31 C-14.87 659.86 -15.37 660.41 -15.88 660.98 C-17.18 662.39 -18.59 663.7 -20 665 C-20.99 665 -21.98 665 -23 665 C-23.27 665.6 -23.54 666.2 -23.82 666.83 C-27.86 674.28 -37.3 678.28 -44.38 682.25 C-45.55 682.92 -46.73 683.59 -47.9 684.26 C-50.22 685.58 -52.55 686.9 -54.87 688.22 C-58.77 690.44 -62.64 692.71 -66.5 695 C-82.46 704.43 -98.56 713.61 -114.66 722.79 C-120.66 726.22 -126.62 729.7 -132.56 733.22 C-138.03 736.45 -143.54 739.61 -149.06 742.75 C-156.74 747.12 -164.38 751.54 -172 756 C-180.33 760.87 -188.68 765.69 -197.07 770.46 C-203.74 774.26 -210.37 778.12 -217 782 C-228.82 788.91 -240.69 795.71 -252.6 802.48 C-262.4 808.05 -272.18 813.67 -281.88 819.44 C-290.44 824.52 -299.07 829.46 -307.75 834.34 C-313.98 837.84 -320.16 841.42 -326.31 845.06 C-341.66 854.14 -357.16 862.96 -372.66 871.79 C-378.66 875.22 -384.62 878.7 -390.56 882.22 C-396.03 885.45 -401.54 888.61 -407.06 891.75 C-414.74 896.12 -422.38 900.54 -430 905 C-437.48 909.37 -444.97 913.71 -452.5 918 C-459.96 922.25 -467.4 926.55 -474.81 930.88 C-475.81 931.45 -476.81 932.03 -477.83 932.63 C-483 935.63 -488.13 938.68 -493.22 941.79 C-512.91 953.72 -529.24 959.21 -552.19 959.35 C-554.16 959.37 -556.14 959.39 -558.12 959.43 C-576.6 959.79 -592.24 957.08 -608.34 947.71 C-609.08 947.28 -609.82 946.85 -610.58 946.41 C-611.38 945.95 -612.18 945.48 -613 945 C-613.91 944.48 -614.81 943.95 -615.74 943.42 C-620.82 940.48 -625.89 937.52 -630.95 934.54 C-636.44 931.32 -641.96 928.15 -647.5 925 C-656.06 920.13 -664.56 915.18 -673.06 910.21 C-679.52 906.44 -686 902.7 -692.5 899 C-700.03 894.71 -707.52 890.37 -715 886 C-722.44 881.65 -729.89 877.33 -737.38 873.06 C-753.7 863.76 -769.97 854.37 -786.19 844.88 C-793.96 840.33 -801.77 835.85 -809.62 831.44 C-818.1 826.67 -826.5 821.78 -834.86 816.81 C-842.01 812.57 -849.22 808.43 -856.45 804.31 C-861.93 801.19 -867.38 798.03 -872.81 794.81 C-878.17 791.64 -883.56 788.54 -889 785.5 C-894.33 782.52 -899.62 779.48 -904.88 776.38 C-921.03 766.82 -937.34 757.51 -953.64 748.22 C-959.81 744.7 -965.94 741.11 -972.05 737.5 C-979.42 733.15 -986.85 728.92 -994.29 724.7 C-1004.31 719.01 -1014.29 713.26 -1024.19 707.38 C-1030.84 703.42 -1037.53 699.55 -1044.31 695.81 C-1052.3 691.41 -1060.21 686.89 -1068.03 682.18 C-1069.3 681.42 -1070.57 680.67 -1071.84 679.93 C-1088.24 670.39 -1102.56 657.18 -1111 640 C-1104.83 635.76 -1098.52 631.91 -1092 628.25 C-1090.13 627.19 -1088.27 626.14 -1086.41 625.08 C-1085.03 624.3 -1085.03 624.3 -1083.63 623.5 C-1079.9 621.37 -1076.2 619.19 -1072.5 617 C-1065.47 612.84 -1058.38 608.78 -1051.28 604.74 C-1044.54 600.89 -1037.83 596.99 -1031.12 593.06 C-1023.25 588.45 -1015.33 583.91 -1007.38 579.44 C-999.06 574.76 -990.82 569.96 -982.62 565.08 C-975.17 560.66 -967.65 556.35 -960.12 552.06 C-951.24 547.01 -942.38 541.91 -933.56 536.75 C-924.33 531.34 -915.05 526 -905.75 520.71 C-902.72 518.99 -899.7 517.24 -896.69 515.48 C-896.04 515.1 -895.39 514.72 -894.72 514.33 C-893.01 513.33 -891.32 512.33 -889.62 511.33 C-887 510 -887 510 -884 510 C-883.34 511.22 -883.34 511.22 -882.67 512.46 C-866.82 541.12 -844.82 566.21 -821.81 589.31 C-821.06 590.07 -820.32 590.82 -819.54 591.59 C-814.86 596.27 -810.04 600.72 -805 605 C-804.04 605.82 -804.04 605.82 -803.07 606.65 C-779.62 626.53 -754.27 642.83 -727 657 C-726.07 657.49 -725.14 657.98 -724.18 658.48 C-697.37 672.38 -668.47 682.5 -639 689 C-637.94 689.24 -636.87 689.47 -635.78 689.72 C-542.04 710.14 -439.39 693.09 -358 642 C-344.53 633.31 -331.33 624.25 -319 614 C-318.2 613.34 -318.2 613.34 -317.38 612.67 C-298.88 597.43 -280.76 580.91 -266 562 C-264.42 560.14 -262.84 558.29 -261.25 556.44 C-252.12 545.47 -243.97 533.75 -236.25 521.75 C-235.74 520.96 -235.22 520.18 -234.69 519.37 C-232.09 515.24 -230.35 511.99 -230 507 C-230.66 506.76 -231.33 506.52 -232.01 506.27 C-235.77 504.68 -239.26 502.74 -242.81 500.75 C-243.58 500.32 -244.34 499.9 -245.13 499.45 C-254.05 494.45 -262.88 489.27 -271.7 484.1 C-274.64 482.38 -277.57 480.66 -280.53 478.98 C-285.31 476.25 -290.06 473.47 -294.81 470.69 C-303.49 465.62 -312.17 460.58 -320.88 455.56 C-321.95 454.95 -323.02 454.33 -324.12 453.69 C-329.71 450.47 -335.3 447.25 -340.89 444.04 C-360.65 432.67 -360.65 432.67 -370.34 426.8 C-374.24 424.44 -378.19 422.17 -382.21 420 C-383.78 419.12 -385.3 418.16 -386.81 417.19 C-389.17 415.68 -389.17 415.68 -393 416 C-394.69 418.35 -396.09 420.61 -397.5 423.12 C-402.14 430.98 -407.49 437.7 -413.6 444.45 C-414.89 445.88 -416.15 447.33 -417.41 448.78 C-447.71 483.46 -494.84 505.2 -540.5 508.41 C-570.36 510.21 -600.39 507.12 -628 495 C-628.76 494.68 -629.53 494.35 -630.32 494.02 C-656.28 482.93 -681.82 465.8 -700 444 C-701.14 442.69 -701.14 442.69 -702.3 441.36 C-734.77 403.59 -750.11 353.42 -746.59 303.96 C-742.66 258.16 -721.42 216.9 -690 184 C-689.47 183.44 -688.93 182.88 -688.39 182.3 C-684.19 177.99 -679.74 174.24 -674.94 170.62 C-674.19 170.06 -673.45 169.5 -672.69 168.92 C-630.88 137.61 -580.29 123.31 -528.25 130.59 C-488.29 136.79 -453.07 155.3 -424 183 C-423.22 183.73 -422.44 184.45 -421.64 185.2 C-413.87 192.65 -407.08 201.15 -401.25 210.2 C-400.81 210.89 -400.37 211.57 -399.91 212.28 C-399.07 213.61 -398.25 214.94 -397.44 216.29 C-395.22 219.87 -395.22 219.87 -391.62 221.81 C-388.54 222.03 -387.39 221.53 -384.76 219.96 C-383.95 219.49 -383.15 219.02 -382.32 218.53 C-381.45 218.01 -380.58 217.48 -379.69 216.94 C-378.77 216.39 -377.84 215.85 -376.89 215.29 C-374.92 214.13 -372.96 212.96 -370.99 211.79 C-366.16 208.9 -361.3 206.08 -356.44 203.25 C-355.45 202.67 -354.46 202.09 -353.44 201.5 C-345.65 196.95 -337.83 192.46 -330 188 C-320.28 182.46 -310.59 176.87 -300.94 171.22 C-293.64 166.95 -286.32 162.72 -279 158.5 C-267.58 151.92 -256.18 145.32 -244.82 138.64 C-242.77 137.45 -240.71 136.29 -238.64 135.14 C-237.54 134.53 -236.44 133.91 -235.3 133.28 C-234.29 132.73 -233.28 132.17 -232.23 131.6 C-231.5 131.07 -230.76 130.54 -230 130 C-230 129.01 -230 128.02 -230 127 C-229.34 127 -228.68 127 -228 127 C-228 127.66 -228 128.32 -228 129 C-218.75 123.86 -209.57 118.6 -200.44 113.25 C-192.5 108.6 -184.52 104.01 -176.5 99.5 C-167.57 94.48 -158.7 89.35 -149.85 84.17 C-143.32 80.34 -136.76 76.56 -130.19 72.81 C-117.48 65.57 -104.82 58.23 -92.19 50.85 C-82.64 45.27 -73.06 39.73 -63.44 34.26 C-58.1 31.21 -52.79 28.13 -47.5 25 C-39.38 20.2 -31.19 15.51 -22.99 10.85 C-19.88 9.08 -16.78 7.29 -13.7 5.46 C-13.05 5.08 -12.41 4.71 -11.75 4.32 C-10.07 3.33 -8.39 2.33 -6.71 1.33 C-4 0 -4 0 0 0 Z " fill="#00589B" transform="translate(1125,321)"/>
<path d="M0 0 C56.44 -1.29 114.5 8.53 165.69 32.99 C168.26 34.21 170.85 35.4 173.45 36.6 C205.1 51.3 234.57 70.1 260.36 93.71 C261.78 94.99 263.21 96.27 264.66 97.52 C270.33 102.37 275.65 107.56 280.92 112.83 C282.41 114.32 283.91 115.8 285.41 117.28 C291.72 123.55 297.45 130.1 302.98 137.08 C303.96 138.26 304.94 139.45 305.92 140.62 C331.6 171.83 331.6 171.83 338.98 189.08 C337.71 192.9 336.5 193.21 333.04 195.16 C331.99 195.76 330.95 196.35 329.87 196.96 C328.73 197.6 327.59 198.24 326.42 198.89 C325.24 199.56 324.06 200.23 322.87 200.9 C321.05 201.94 319.23 202.97 317.4 204 C311.46 207.36 305.56 210.81 299.67 214.27 C291.44 219.08 283.19 223.83 274.9 228.55 C267.33 232.86 259.8 237.26 252.27 241.66 C244.86 245.99 237.43 250.29 229.98 254.58 C222.42 258.93 214.86 263.3 207.33 267.71 C205.29 268.9 203.26 270.08 201.22 271.27 C196.98 273.74 192.74 276.21 188.55 278.77 C187.9 279.15 187.25 279.54 186.59 279.94 C184.95 280.92 183.32 281.92 181.69 282.92 C178.98 284.08 178.98 284.08 176.36 284.08 C173.15 282.73 172.05 281.01 170.11 278.14 C169.41 277.14 168.72 276.14 168.01 275.11 C167.34 274.11 166.67 273.11 165.98 272.08 C150.79 249.56 131.58 230.73 107.98 217.08 C106.89 216.45 105.8 215.81 104.68 215.16 C61.23 190.67 9.77 184.55 -38.36 197.4 C-61.29 203.98 -83.08 214.59 -102.02 229.08 C-102.92 229.77 -103.83 230.46 -104.76 231.17 C-110.75 235.87 -116.44 240.9 -122.02 246.08 C-122.91 246.89 -122.91 246.89 -123.81 247.71 C-144.99 267.78 -160.32 296.59 -169.02 324.08 C-169.26 324.83 -169.49 325.58 -169.74 326.35 C-174.34 341.18 -177.36 356.54 -178.02 372.08 C-178.1 373.86 -178.1 373.86 -178.18 375.68 C-179.17 409.74 -169.95 442.24 -154.02 472.08 C-153.7 472.69 -153.38 473.29 -153.05 473.92 C-144.46 490.08 -132.91 503.21 -120.02 516.08 C-119.53 516.62 -119.03 517.16 -118.53 517.71 C-103.17 534.28 -80.51 546.26 -60.02 555.08 C-59.37 555.36 -58.72 555.65 -58.05 555.94 C-16.71 573.87 34.9 573.71 76.94 557.97 C99.11 549.14 120.42 537.55 137.87 521.07 C139.79 519.26 141.76 517.61 143.79 515.95 C155.16 505.96 163.78 493.52 171.86 480.83 C172.88 479.24 173.93 477.66 174.98 476.08 C179.6 476.61 182.71 477.81 186.66 480.23 C187.71 480.87 188.75 481.5 189.83 482.15 C191.39 483.11 191.39 483.11 192.98 484.08 C194.82 485.16 196.65 486.23 198.49 487.3 C199.4 487.83 200.31 488.36 201.25 488.91 C210.92 494.55 220.6 500.17 230.29 505.77 C231.39 506.4 232.48 507.03 233.61 507.68 C237.61 509.98 241.62 512.29 245.62 514.6 C255.84 520.49 266.03 526.44 276.16 532.49 C280.5 535.07 284.87 537.58 289.31 539.98 C295.71 543.43 301.93 547.16 308.17 550.89 C317.64 556.57 317.64 556.57 327.26 561.98 C328.38 562.59 328.38 562.59 329.53 563.21 C330.87 563.93 332.22 564.64 333.58 565.34 C335.92 566.6 337.69 567.6 339.11 569.89 C338.91 573.36 337.11 575.9 335.29 578.77 C334.89 579.42 334.49 580.07 334.07 580.74 C322.86 598.6 309.92 615.29 295.98 631.08 C295.32 631.83 294.65 632.59 293.96 633.37 C288.47 639.54 282.77 645.44 276.92 651.27 C276.07 652.12 275.23 652.97 274.35 653.84 C269.39 658.8 264.33 663.55 258.98 668.08 C258.02 668.9 258.02 668.9 257.04 669.74 C237.64 686.22 216.63 700.76 194.22 712.86 C192.67 713.71 191.12 714.56 189.57 715.42 C109.15 760.35 13.5 769.44 -91.06 746.2 C-97.44 744.33 -103.74 742.27 -110.02 740.08 C-111.06 739.71 -112.11 739.35 -113.18 738.97 C-152.22 725.12 -189.7 705.01 -222.02 679.08 C-222.82 678.44 -222.82 678.44 -223.65 677.79 C-229.42 673.19 -234.99 668.39 -240.44 663.41 C-241.85 662.13 -243.28 660.85 -244.73 659.61 C-250.56 654.6 -256.02 649.26 -261.46 643.83 C-262.35 642.95 -263.24 642.07 -264.15 641.17 C-269.47 635.86 -274.37 630.39 -279.06 624.52 C-280.62 622.58 -282.2 620.67 -283.85 618.79 C-331.71 563.9 -360.29 489.18 -367.02 417.08 C-367.11 416.08 -367.21 415.08 -367.3 414.05 C-368.22 403.05 -368.26 392.05 -368.27 381.02 C-368.27 380 -368.27 378.98 -368.27 377.94 C-368.26 361.12 -367.44 344.75 -365.02 328.08 C-364.88 327.06 -364.74 326.05 -364.6 325 C-359.38 287.55 -347.76 250.95 -331.02 217.08 C-330.31 215.62 -329.61 214.15 -328.9 212.69 C-327.01 208.78 -325.03 204.92 -323.02 201.08 C-322.67 200.41 -322.32 199.74 -321.96 199.05 C-308.83 173.93 -292.05 150.8 -273.33 129.57 C-272.19 128.27 -271.06 126.97 -269.94 125.66 C-259.38 113.58 -247.94 101.7 -235.27 91.83 C-233.2 90.22 -231.27 88.53 -229.33 86.77 C-218.42 77.15 -206.24 68.91 -194.02 61.08 C-193.37 60.66 -192.72 60.24 -192.05 59.8 C-135.05 23.15 -67.83 1.76 0 0 Z " fill="#FAFDFF" transform="translate(557.01806640625,259.921875)"/>
<path d="M0 0 C0.66 0 1.32 0 2 0 C2 0.66 2 1.32 2 2 C3.07 2.16 3.07 2.16 4.17 2.32 C7.29 3.07 9.57 4.23 12.36 5.81 C13.38 6.39 14.41 6.96 15.46 7.56 C16.55 8.18 17.63 8.8 18.75 9.44 C19.87 10.07 21 10.71 22.15 11.36 C29.06 15.29 35.93 19.26 42.76 23.32 C48.2 26.55 53.69 29.69 59.19 32.81 C66.42 36.93 73.6 41.12 80.75 45.38 C89.8 50.76 98.95 55.92 108.15 61.04 C114.49 64.57 120.76 68.18 126.97 71.96 C130.84 74.31 134.74 76.58 138.69 78.81 C144.58 82.15 150.39 85.62 156.19 89.12 C162.2 92.75 168.22 96.3 174.41 99.6 C179.28 102.23 184.06 105.02 188.87 107.78 C191.28 109.16 193.69 110.53 196.11 111.9 C224.29 127.9 224.29 127.9 228 132 C226.88 134.97 225.78 137.33 224 140 C223.34 140 222.68 140 222 140 C221.95 140.69 221.89 141.39 221.84 142.11 C220.71 146.01 218.36 148.43 215.62 151.31 C215.13 151.86 214.63 152.41 214.12 152.98 C212.82 154.39 211.41 155.7 210 157 C209.01 157 208.02 157 207 157 C206.73 157.6 206.46 158.2 206.18 158.83 C202.14 166.28 192.7 170.28 185.62 174.25 C184.45 174.92 183.27 175.59 182.1 176.26 C179.78 177.58 177.45 178.9 175.13 180.22 C171.23 182.44 167.36 184.71 163.5 187 C147.54 196.43 131.44 205.61 115.34 214.79 C109.34 218.22 103.38 221.7 97.44 225.22 C91.97 228.45 86.46 231.61 80.94 234.75 C73.26 239.12 65.62 243.54 58 248 C49.67 252.87 41.32 257.69 32.93 262.46 C26.26 266.26 19.63 270.12 13 274 C1.18 280.91 -10.69 287.71 -22.6 294.48 C-32.4 300.05 -42.18 305.67 -51.88 311.44 C-60.44 316.52 -69.07 321.46 -77.75 326.34 C-83.98 329.84 -90.16 333.42 -96.31 337.06 C-111.66 346.14 -127.16 354.96 -142.66 363.79 C-148.66 367.22 -154.62 370.7 -160.56 374.22 C-166.03 377.45 -171.54 380.61 -177.06 383.75 C-184.74 388.12 -192.38 392.54 -200 397 C-207.48 401.37 -214.97 405.71 -222.5 410 C-229.96 414.25 -237.4 418.55 -244.81 422.88 C-245.81 423.45 -246.81 424.03 -247.83 424.63 C-253 427.63 -258.13 430.68 -263.22 433.79 C-282.91 445.72 -299.24 451.21 -322.19 451.35 C-324.16 451.37 -326.14 451.39 -328.12 451.43 C-346.6 451.79 -362.24 449.08 -378.34 439.71 C-379.08 439.28 -379.82 438.85 -380.58 438.41 C-381.38 437.95 -382.18 437.48 -383 437 C-383.91 436.48 -384.81 435.95 -385.74 435.42 C-390.82 432.48 -395.89 429.52 -400.95 426.54 C-406.44 423.32 -411.96 420.15 -417.5 417 C-426.06 412.13 -434.56 407.18 -443.06 402.21 C-449.52 398.44 -456 394.7 -462.5 391 C-470.03 386.71 -477.52 382.37 -485 378 C-492.44 373.65 -499.89 369.33 -507.38 365.06 C-523.7 355.76 -539.97 346.37 -556.19 336.88 C-563.96 332.33 -571.77 327.85 -579.62 323.44 C-588.1 318.67 -596.5 313.78 -604.86 308.81 C-612.01 304.57 -619.22 300.43 -626.45 296.31 C-631.93 293.19 -637.38 290.03 -642.81 286.81 C-648.17 283.64 -653.56 280.54 -659 277.5 C-664.33 274.52 -669.62 271.48 -674.88 268.38 C-691.03 258.82 -707.34 249.51 -723.64 240.22 C-729.81 236.7 -735.94 233.11 -742.05 229.5 C-749.42 225.15 -756.85 220.92 -764.29 216.7 C-774.31 211.01 -784.29 205.26 -794.19 199.38 C-800.84 195.42 -807.53 191.55 -814.31 187.81 C-822.3 183.41 -830.21 178.89 -838.03 174.18 C-839.3 173.42 -840.57 172.67 -841.84 171.93 C-858.24 162.39 -872.56 149.18 -881 132 C-874.83 127.76 -868.52 123.91 -862 120.25 C-860.13 119.19 -858.27 118.14 -856.41 117.08 C-855.49 116.56 -854.57 116.04 -853.63 115.5 C-849.9 113.37 -846.2 111.19 -842.5 109 C-835.47 104.84 -828.38 100.78 -821.28 96.74 C-814.54 92.89 -807.83 88.99 -801.12 85.06 C-793.25 80.45 -785.33 75.91 -777.38 71.44 C-769.06 66.76 -760.82 61.96 -752.62 57.08 C-745.17 52.66 -737.65 48.35 -730.12 44.06 C-721.24 39.01 -712.38 33.91 -703.56 28.75 C-694.33 23.34 -685.05 18 -675.75 12.71 C-672.72 10.99 -669.7 9.24 -666.69 7.48 C-665.71 6.91 -665.71 6.91 -664.72 6.33 C-663.01 5.33 -661.32 4.33 -659.62 3.33 C-657 2 -657 2 -654 2 C-653.56 2.81 -653.12 3.63 -652.67 4.46 C-636.82 33.12 -614.82 58.21 -591.81 81.31 C-591.06 82.07 -590.32 82.82 -589.54 83.59 C-584.86 88.27 -580.04 92.72 -575 97 C-574.36 97.54 -573.73 98.09 -573.07 98.65 C-549.62 118.53 -524.27 134.83 -497 149 C-496.07 149.49 -495.14 149.98 -494.18 150.48 C-467.37 164.38 -438.47 174.5 -409 181 C-407.41 181.35 -407.41 181.35 -405.78 181.72 C-312.04 202.14 -209.39 185.09 -128 134 C-114.53 125.31 -101.33 116.25 -89 106 C-88.47 105.56 -87.93 105.12 -87.38 104.67 C-68.88 89.43 -50.76 72.91 -36 54 C-34.42 52.14 -32.84 50.29 -31.25 48.44 C-22.1 37.45 -13.95 25.72 -6.25 13.69 C-5.48 12.5 -5.48 12.5 -4.69 11.28 C-1.38 6.02 -1.38 6.02 0 0 Z " fill="#004482" transform="translate(895,829)"/>
<path d="M0 0 C4.1 3.56 8.07 7.25 12 11 C12.78 11.73 13.56 12.45 14.36 13.2 C26.2 24.56 35.12 38.3 44 52 C39.35 56.1 34.08 58.89 28.69 61.88 C20.37 66.52 12.1 71.24 3.88 76.06 C-3.56 80.42 -11.01 84.74 -18.5 89 C-25.88 93.2 -33.23 97.46 -40.56 101.75 C-49.93 107.23 -59.34 112.64 -68.78 118.01 C-78.14 123.35 -87.46 128.76 -96.77 134.2 C-102.15 137.35 -107.55 140.46 -113 143.5 C-120.54 147.71 -128 152.06 -135.45 156.43 C-144.04 161.45 -152.66 166.42 -161.28 171.39 C-168.6 175.61 -175.9 179.86 -183.19 184.12 C-191.86 189.2 -200.59 194.18 -209.35 199.1 C-217.33 203.6 -225.24 208.2 -233.14 212.83 C-240.57 217.18 -248.04 221.46 -255.52 225.72 C-261.94 229.38 -268.32 233.1 -274.67 236.88 C-277.74 238.69 -280.78 240.48 -284 242 C-288.07 238.51 -290.02 234.52 -292.25 229.75 C-292.64 228.92 -293.02 228.1 -293.42 227.25 C-314.71 180.41 -316.21 129.7 -298.95 81.39 C-288.99 55.03 -273.37 32.28 -254 12 C-253.47 11.44 -252.93 10.88 -252.39 10.3 C-248.19 5.99 -243.74 2.24 -238.94 -1.38 C-238.19 -1.94 -237.45 -2.5 -236.69 -3.08 C-166.99 -55.28 -67.63 -57.65 0 0 Z " fill="#5E99D2" transform="translate(689,493)"/>
<path d="M0 0 C2.68 1.4 5.21 2.93 7.75 4.56 C14.01 8.5 20.42 12.13 26.88 15.74 C34.23 19.87 41.47 24.08 48.62 28.56 C52.15 30.72 55.78 32.66 59.43 34.62 C62.97 36.57 66.42 38.65 69.88 40.74 C74.89 43.78 79.95 46.69 85.12 49.46 C96.67 55.78 108.07 62.4 119.33 69.23 C123.69 71.87 128.14 74.31 132.63 76.72 C136.9 79.09 141.01 81.7 145.15 84.29 C149.06 86.66 153.07 88.82 157.13 90.92 C159.27 92.18 160.67 93.47 162.38 95.24 C155.34 106.22 148.07 116.53 139.38 126.24 C138.6 127.14 137.83 128.03 137.04 128.95 C106.69 163.66 59.6 185.44 13.87 188.65 C-15.99 190.45 -46.02 187.36 -73.62 175.24 C-74.39 174.92 -75.15 174.6 -75.94 174.26 C-101.9 163.17 -127.44 146.04 -145.62 124.24 C-146.39 123.37 -147.15 122.5 -147.93 121.6 C-152.72 116.03 -157.09 110.34 -161.19 104.24 C-161.62 103.61 -162.05 102.97 -162.49 102.32 C-164.47 99.32 -165.88 96.76 -166.62 93.24 C-165.53 92.83 -165.53 92.83 -164.41 92.4 C-161.85 91.34 -159.54 90.15 -157.14 88.78 C-156.3 88.29 -155.45 87.81 -154.58 87.31 C-153.69 86.79 -152.8 86.28 -151.87 85.74 C-150.94 85.21 -150 84.67 -149.04 84.12 C-142.69 80.46 -136.37 76.76 -130.07 73.03 C-123.72 69.28 -117.31 65.63 -110.91 61.98 C-104.2 58.16 -97.53 54.27 -90.87 50.37 C-82.49 45.46 -74.05 40.66 -65.56 35.93 C-57.88 31.66 -50.28 27.3 -42.77 22.73 C-35.91 18.58 -28.94 14.64 -21.98 10.65 C-20.92 10.04 -19.86 9.42 -18.76 8.79 C-17.73 8.21 -16.69 7.62 -15.63 7.01 C-13.65 5.85 -11.7 4.64 -9.78 3.38 C-8.91 2.81 -8.04 2.25 -7.14 1.66 C-6.39 1.15 -5.63 0.63 -4.85 0.1 C-2.62 -0.76 -2.62 -0.76 0 0 Z " fill="#004482" transform="translate(570.624755859375,640.755859375)"/>
<path d="M0 0 C5.66 -0.05 11.32 -0.09 16.98 -0.11 C18.91 -0.12 20.83 -0.13 22.76 -0.15 C25.52 -0.18 28.29 -0.19 31.05 -0.2 C32.35 -0.21 32.35 -0.21 33.67 -0.23 C35.78 -0.23 37.89 -0.12 40 0 C43.05 3.05 42.36 6.63 42.41 10.73 C42.43 11.59 42.45 12.45 42.47 13.34 C42.53 16.1 42.58 18.86 42.62 21.62 C42.66 23.49 42.7 25.36 42.74 27.23 C42.84 31.82 42.92 36.41 43 41 C44.17 41.02 45.34 41.04 46.55 41.06 C50.88 41.14 55.22 41.22 59.55 41.32 C61.43 41.36 63.31 41.39 65.19 41.42 C67.88 41.47 70.58 41.53 73.27 41.59 C74.12 41.6 74.96 41.61 75.83 41.62 C81.77 41.77 81.77 41.77 84 44 C84.18 47.01 84.23 49.93 84.2 52.95 C84.19 53.73 84.19 54.51 84.19 55.32 C84.18 58.26 84.15 61.19 84.12 64.12 C84.08 70.68 84.04 77.24 84 84 C70.14 84 56.28 84 42 84 C42 97.86 42 111.72 42 126 C35.09 126.02 28.18 126.04 21.06 126.06 C17.79 126.08 17.79 126.08 14.45 126.09 C12.73 126.09 11.01 126.1 9.29 126.1 C7.93 126.11 7.93 126.11 6.55 126.11 C4.37 126.11 2.18 126.06 0 126 C-2.13 123.87 -1.26 119.11 -1.32 116.15 C-1.34 115.27 -1.36 114.38 -1.38 113.47 C-1.44 110.62 -1.5 107.78 -1.56 104.94 C-1.61 103.01 -1.65 101.09 -1.69 99.17 C-1.8 94.45 -1.9 89.72 -2 85 C-3.76 84.97 -3.76 84.97 -5.55 84.94 C-9.88 84.86 -14.22 84.78 -18.55 84.68 C-20.43 84.64 -22.31 84.61 -24.19 84.58 C-26.88 84.53 -29.58 84.47 -32.27 84.41 C-33.12 84.4 -33.96 84.39 -34.83 84.38 C-40.77 84.23 -40.77 84.23 -43 82 C-43.19 79.07 -43.26 76.24 -43.23 73.31 C-43.23 72.45 -43.23 71.59 -43.23 70.7 C-43.23 68.88 -43.22 67.06 -43.21 65.24 C-43.19 62.45 -43.19 59.65 -43.19 56.85 C-43.18 55.09 -43.17 53.32 -43.17 51.56 C-43.17 50.72 -43.17 49.88 -43.16 49.01 C-43.12 43.12 -43.12 43.12 -42 42 C-38.97 41.91 -35.96 41.88 -32.93 41.9 C-32.02 41.9 -31.12 41.91 -30.18 41.91 C-27.27 41.91 -24.35 41.92 -21.44 41.94 C-19.47 41.94 -17.5 41.95 -15.53 41.95 C-10.68 41.96 -5.84 41.98 -1 42 C-1.01 40.8 -1.01 39.6 -1.02 38.36 C-1.03 33.91 -1.05 29.47 -1.05 25.02 C-1.06 23.09 -1.07 21.17 -1.08 19.24 C-1.09 16.48 -1.09 13.71 -1.1 10.95 C-1.1 10.08 -1.11 9.22 -1.11 8.33 C-1.11 2.23 -1.11 2.23 0 0 Z " fill="#FAFDFF" transform="translate(1022,577)"/>
<path d="M0 0 C5.66 -0.05 11.32 -0.09 16.98 -0.11 C18.91 -0.12 20.83 -0.13 22.76 -0.15 C25.52 -0.18 28.29 -0.19 31.05 -0.2 C32.35 -0.21 32.35 -0.21 33.67 -0.23 C35.78 -0.23 37.89 -0.12 40 0 C43.05 3.05 42.36 6.63 42.41 10.73 C42.43 11.59 42.45 12.45 42.47 13.34 C42.53 16.1 42.58 18.86 42.62 21.62 C42.66 23.49 42.7 25.36 42.74 27.23 C42.84 31.82 42.92 36.41 43 41 C44.17 41.02 45.34 41.04 46.55 41.06 C50.88 41.14 55.22 41.22 59.55 41.32 C61.43 41.36 63.31 41.39 65.19 41.42 C67.88 41.47 70.58 41.53 73.27 41.59 C74.12 41.6 74.96 41.61 75.83 41.62 C81.77 41.77 81.77 41.77 84 44 C84.18 47.01 84.23 49.93 84.2 52.95 C84.19 53.73 84.19 54.51 84.19 55.32 C84.18 58.26 84.15 61.19 84.12 64.12 C84.08 70.68 84.04 77.24 84 84 C70.14 84 56.28 84 42 84 C42 97.86 42 111.72 42 126 C35.09 126.02 28.18 126.04 21.06 126.06 C17.79 126.08 17.79 126.08 14.45 126.09 C12.73 126.09 11.01 126.1 9.29 126.1 C7.93 126.11 7.93 126.11 6.55 126.11 C4.37 126.11 2.18 126.06 0 126 C-2.13 123.87 -1.26 119.11 -1.32 116.15 C-1.34 115.27 -1.36 114.38 -1.38 113.47 C-1.44 110.62 -1.5 107.78 -1.56 104.94 C-1.61 103.01 -1.65 101.09 -1.69 99.17 C-1.8 94.45 -1.9 89.72 -2 85 C-3.76 84.97 -3.76 84.97 -5.55 84.94 C-9.88 84.86 -14.22 84.78 -18.55 84.68 C-20.43 84.64 -22.31 84.61 -24.19 84.58 C-26.88 84.53 -29.58 84.47 -32.27 84.41 C-33.12 84.4 -33.96 84.39 -34.83 84.38 C-40.77 84.23 -40.77 84.23 -43 82 C-43.19 79.07 -43.26 76.24 -43.23 73.31 C-43.23 72.45 -43.23 71.59 -43.23 70.7 C-43.23 68.88 -43.22 67.06 -43.21 65.24 C-43.19 62.45 -43.19 59.65 -43.19 56.85 C-43.18 55.09 -43.17 53.32 -43.17 51.56 C-43.17 50.72 -43.17 49.88 -43.16 49.01 C-43.12 43.12 -43.12 43.12 -42 42 C-38.97 41.91 -35.96 41.88 -32.93 41.9 C-32.02 41.9 -31.12 41.91 -30.18 41.91 C-27.27 41.91 -24.35 41.92 -21.44 41.94 C-19.47 41.94 -17.5 41.95 -15.53 41.95 C-10.68 41.96 -5.84 41.98 -1 42 C-1.01 40.8 -1.01 39.6 -1.02 38.36 C-1.03 33.91 -1.05 29.47 -1.05 25.02 C-1.06 23.09 -1.07 21.17 -1.08 19.24 C-1.09 16.48 -1.09 13.71 -1.1 10.95 C-1.1 10.08 -1.11 9.22 -1.11 8.33 C-1.11 2.23 -1.11 2.23 0 0 Z " fill="#FAFDFF" transform="translate(864,577)"/>
<path d="" fill="#5F9AD3" transform="translate(0,0)"/>
<path d="" fill="#5F9AD3" transform="translate(0,0)"/>
</svg>
