<?xml version="1.0" encoding="UTF-8"?>
<!-- Generator: visioncortex VTracer 0.6.3 -->
<svg version="1.1" xmlns="http://www.w3.org/2000/svg" width="1280" height="1153">
<path d="M0 0 C2.43 0.01 4.87 0 7.3 -0.01 C8.87 -0.01 10.43 -0 12 -0 C12.72 -0 13.44 -0.01 14.17 -0.01 C20.15 0.02 25.9 0.49 31.55 2.51 C34.92 3.69 34.92 3.69 38.33 4.78 C52.05 8.98 65.47 16.52 74.17 28.13 C74.98 28.91 75.78 29.7 76.61 30.51 C99.03 53.47 98.24 86.13 98.2 116.11 C98.11 123.34 96.96 130.15 95.17 137.13 C94.91 138.17 94.66 139.22 94.39 140.29 C91.76 150.73 89.09 161.09 85.17 171.13 C84.71 172.42 84.26 173.71 83.81 175 C78.36 190.73 72.5 206.17 65.17 221.13 C64.86 221.77 64.55 222.4 64.23 223.06 C60.45 230.78 56.52 238.41 52.49 246.01 C52.11 246.72 51.73 247.43 51.34 248.17 C49.73 251.21 48.11 254.24 46.42 257.25 C45.71 258.55 45.71 258.55 44.99 259.88 C44.58 260.6 44.17 261.31 43.76 262.05 C42.93 264.99 43.85 266.44 45.17 269.13 C45.47 269.8 45.76 270.47 46.07 271.17 C46.37 271.83 46.67 272.5 46.99 273.19 C47.72 274.84 48.45 276.48 49.17 278.13 C49.57 279.02 49.96 279.9 50.37 280.82 C53.14 287.22 55.39 293.67 57.39 300.35 C58.37 303.63 59.42 306.85 60.64 310.04 C66.33 324.95 69.89 340.56 73.17 356.13 C73.36 357.02 73.55 357.91 73.74 358.82 C75.93 369.22 77.83 379.59 79.17 390.13 C79.34 391.38 79.51 392.62 79.69 393.9 C81.04 404.15 81.47 414.21 81.44 424.54 C81.44 426.16 81.44 427.78 81.45 429.4 C81.45 432.77 81.44 436.14 81.43 439.51 C81.42 443.75 81.43 447.99 81.44 452.23 C81.51 483.15 79.32 512.68 72.67 542.94 C72.48 543.82 72.3 544.7 72.1 545.6 C70.9 550.85 69.24 555.67 67.17 560.63 C65.53 564.74 64.33 568.95 63.11 573.19 C59.94 584.08 56.28 594.6 52 605.1 C51.19 607.08 50.4 609.08 49.62 611.07 C37.52 641.4 21.41 669.14 3.17 696.13 C2.48 697.23 1.79 698.32 1.08 699.45 C0.45 700.34 -0.18 701.22 -0.83 702.13 C-1.49 702.13 -2.15 702.13 -2.83 702.13 C-3.03 702.79 -3.24 703.46 -3.45 704.14 C-5.34 708.24 -8 711.46 -10.83 714.94 C-11.37 715.64 -11.92 716.33 -12.48 717.04 C-13.01 717.7 -13.53 718.35 -14.08 719.02 C-14.56 719.62 -15.04 720.22 -15.53 720.83 C-15.96 721.26 -16.39 721.69 -16.83 722.13 C-17.49 722.13 -18.15 722.13 -18.83 722.13 C-19.16 723.45 -19.49 724.77 -19.83 726.13 C-20.49 726.13 -21.15 726.13 -21.83 726.13 C-22.06 726.68 -22.3 727.24 -22.54 727.81 C-28.42 738.45 -40 747.41 -48.58 756.01 C-49.12 756.55 -49.66 757.1 -50.22 757.66 C-67.23 774.73 -67.23 774.73 -73.83 777.13 C-74.16 778.12 -74.49 779.11 -74.83 780.13 C-77.16 782.06 -79.5 783.86 -81.95 785.63 C-82.66 786.16 -83.38 786.68 -84.11 787.22 C-85.6 788.32 -87.1 789.41 -88.59 790.5 C-90.73 792.06 -92.85 793.62 -94.98 795.19 C-101.14 799.73 -101.14 799.73 -104.11 801.88 C-105.32 802.76 -106.52 803.65 -107.71 804.56 C-112.5 808.13 -112.5 808.13 -115.83 808.13 C-115.83 808.79 -115.83 809.45 -115.83 810.13 C-117.77 811.5 -117.77 811.5 -120.39 813.01 C-121.3 813.53 -122.21 814.06 -123.15 814.6 C-124.03 815.1 -124.92 815.61 -125.83 816.13 C-126.52 816.55 -127.22 816.98 -127.94 817.41 C-132.47 820.13 -132.47 820.13 -135.83 820.13 C-135.83 820.79 -135.83 821.45 -135.83 822.13 C-155.73 832.66 -155.73 832.66 -162.79 836.12 C-164.11 836.77 -165.41 837.44 -166.71 838.14 C-172.08 840.99 -177.7 842.93 -183.46 844.88 C-186.73 846.09 -189.73 847.55 -192.83 849.13 C-199.89 852.02 -207.22 854.31 -214.45 856.76 C-215.33 857.06 -216.22 857.36 -217.13 857.67 C-221.99 859.3 -226.81 860.63 -231.83 861.68 C-233.99 862.13 -233.99 862.13 -236.65 863.07 C-241.59 864.72 -246.64 865.86 -251.7 867.07 C-252.81 867.33 -253.92 867.6 -255.07 867.88 C-262.49 869.63 -269.91 871.19 -277.42 872.49 C-280.89 873.09 -280.89 873.09 -284.49 874.14 C-289.97 875.55 -295.57 875.8 -301.2 876.19 C-303.36 876.35 -305.51 876.5 -307.66 876.67 C-308.61 876.73 -309.55 876.8 -310.52 876.86 C-312.85 877 -312.85 877 -314.83 878.13 C-316.35 878.24 -317.88 878.29 -319.41 878.31 C-320.36 878.32 -321.31 878.33 -322.29 878.35 C-323.84 878.36 -323.84 878.36 -325.42 878.37 C-326.49 878.38 -327.55 878.38 -328.65 878.39 C-330.9 878.41 -333.16 878.42 -335.42 878.43 C-338.85 878.44 -342.28 878.49 -345.71 878.53 C-347.91 878.54 -350.1 878.55 -352.3 878.56 C-353.32 878.57 -354.34 878.59 -355.39 878.61 C-365.51 878.58 -373.37 874.93 -380.83 868.13 C-383.1 865.08 -383.83 863.93 -383.83 860.13 C-384.49 860.13 -385.15 860.13 -385.83 860.13 C-386.16 858.15 -386.49 856.17 -386.83 854.13 C-387.16 854.13 -387.49 854.13 -387.83 854.13 C-388.88 844.17 -386.15 837.01 -380.26 828.99 C-373.72 821.72 -365.56 819.01 -356.02 818.35 C-351.06 818.1 -346.1 817.95 -341.14 817.82 C-339.07 817.75 -337 817.67 -334.93 817.6 C-329.9 817.42 -324.86 817.27 -319.83 817.13 C-319.83 817.46 -319.83 817.79 -319.83 818.13 C-316.86 817.8 -313.89 817.47 -310.83 817.13 C-310.83 816.8 -310.83 816.47 -310.83 816.13 C-294.33 813.84 -294.33 813.84 -286.65 814.26 C-284.57 814.31 -284.57 814.31 -282.83 812.13 C-277.17 810.63 -271.66 810.13 -265.83 810.13 C-265.17 809.47 -264.51 808.81 -263.83 808.13 C-261.66 807.58 -259.46 807.11 -257.26 806.69 C-250.19 805.24 -243.72 803.26 -237 800.64 C-236.31 800.37 -235.61 800.11 -234.89 799.83 C-233.51 799.29 -232.13 798.75 -230.76 798.2 C-226.09 796.39 -221.82 795.59 -216.83 795.13 C-217.16 794.47 -217.49 793.81 -217.83 793.13 C-215.06 792.15 -212.28 791.17 -209.51 790.19 C-208.73 789.92 -207.94 789.64 -207.13 789.35 C-206.38 789.08 -205.62 788.82 -204.84 788.54 C-203.79 788.17 -203.79 788.17 -202.73 787.79 C-201.1 787.23 -199.46 786.68 -197.83 786.13 C-196.84 785.47 -195.85 784.81 -194.83 784.13 C-193.17 783.75 -191.5 783.4 -189.83 783.13 C-189.83 782.47 -189.83 781.81 -189.83 781.13 C-187.52 780.8 -185.21 780.47 -182.83 780.13 C-182.5 779.14 -182.17 778.15 -181.83 777.13 C-179.47 775.8 -177.15 774.64 -174.7 773.51 C-168.12 770.36 -161.87 766.9 -155.7 763.01 C-152.79 761.21 -150.24 759.66 -146.83 759.13 C-146.83 758.47 -146.83 757.81 -146.83 757.13 C-145.15 755.84 -145.15 755.84 -142.95 754.51 C-142.23 754.06 -141.51 753.61 -140.77 753.15 C-138.83 752.13 -138.83 752.13 -136.83 752.13 C-136.83 751.47 -136.83 750.81 -136.83 750.13 C-135.07 748.8 -135.07 748.8 -132.7 747.32 C-129.85 745.49 -127.14 743.66 -124.58 741.44 C-121.83 739.13 -121.83 739.13 -119.26 737.63 C-116.31 735.82 -114.26 733.6 -111.83 731.13 C-109.74 729.15 -107.63 727.2 -105.51 725.26 C-104.94 724.73 -104.37 724.2 -103.78 723.66 C-93.67 714.37 -93.67 714.37 -89.15 710.81 C-86.14 708.44 -84.14 706.17 -82.14 702.92 C-79.62 699.48 -76.4 696.64 -73.36 693.65 C-68.99 689.3 -64.84 684.84 -61.51 679.63 C-60.96 678.81 -60.4 677.98 -59.83 677.13 C-59.17 677.13 -58.51 677.13 -57.83 677.13 C-57.58 676.41 -57.34 675.69 -57.09 674.95 C-55.66 671.75 -53.88 669.59 -51.58 666.94 C-47.85 662.53 -44.81 658.08 -42.02 653.03 C-40.83 651.13 -40.83 651.13 -38.83 650.13 C-37.77 648.16 -36.78 646.15 -35.83 644.13 C-34.83 642.13 -33.83 640.13 -32.83 638.13 C-32.17 638.13 -31.51 638.13 -30.83 638.13 C-30.59 637.33 -30.36 636.52 -30.12 635.7 C-28.51 631.25 -26.37 627.23 -24.14 623.07 C-23.69 622.23 -23.25 621.39 -22.79 620.53 C-20.78 616.75 -18.76 612.99 -16.68 609.24 C-16.07 608.13 -15.46 607.02 -14.83 605.88 C-14.29 604.93 -13.75 603.97 -13.2 602.99 C-11.68 600.05 -11.68 600.05 -10.76 596.33 C-10.45 595.28 -10.14 594.22 -9.83 593.13 C-9.17 592.8 -8.51 592.47 -7.83 592.13 C-7.35 590.29 -6.88 588.45 -6.46 586.6 C-5.28 582.01 -3.77 577.45 -1.83 573.13 C-1.17 572.8 -0.51 572.47 0.17 572.13 C0.79 569.68 0.79 569.68 1.17 566.82 C1.72 563.15 2.45 560.4 4.17 557.13 C4.64 555.09 5.11 553.04 5.54 550.99 C6.35 547.34 7.28 543.74 8.24 540.13 C8.41 539.46 8.59 538.79 8.77 538.1 C10.05 533.25 10.05 533.25 11.17 532.13 C11.55 530.35 11.87 528.55 12.17 526.76 C12.68 523.75 13.21 521.03 14.17 518.13 C14.45 516.43 14.7 514.73 14.93 513.02 C15.06 512.04 15.19 511.06 15.33 510.05 C15.46 509.02 15.6 508 15.74 506.94 C15.94 505.39 15.94 505.39 16.16 503.8 C16.5 501.25 16.84 498.69 17.17 496.13 C17.83 496.13 18.49 496.13 19.17 496.13 C19 494.97 18.83 493.82 18.65 492.62 C18.13 488.45 18.25 484.42 18.58 480.23 C19.36 468.33 19.52 456.43 19.74 444.51 C19.78 442.23 19.82 439.95 19.87 437.67 C19.97 432.16 20.07 426.64 20.17 421.13 C19.84 421.13 19.51 421.13 19.17 421.13 C19.14 420.13 19.14 420.13 19.1 419.11 C18.98 416.08 18.86 413.04 18.74 410.01 C18.68 408.44 18.68 408.44 18.62 406.83 C18.41 401.86 18.18 397.02 17.17 392.13 C16.84 392.13 16.51 392.13 16.17 392.13 C16.17 389.49 16.17 386.85 16.17 384.13 C15.84 384.13 15.51 384.13 15.17 384.13 C15.03 382.89 14.89 381.66 14.74 380.38 C14.38 377.56 13.91 374.88 13.17 372.13 C12.33 367.48 11.74 362.82 11.17 358.13 C10.51 358.13 9.85 358.13 9.17 358.13 C9.5 356.48 9.83 354.83 10.17 353.13 C9.51 353.13 8.85 353.13 8.17 353.13 C7.49 350.64 7.17 348.75 7.17 346.13 C6.51 345.14 5.85 344.15 5.17 343.13 C4.74 341.42 4.37 339.68 4.05 337.94 C3.8 336.59 3.8 336.59 3.54 335.21 C3.42 334.53 3.3 333.84 3.17 333.13 C2.18 332.8 1.19 332.47 0.17 332.13 C0.08 332.68 -0.01 333.24 -0.11 333.81 C-1.02 336.75 -2.52 338.77 -4.33 341.26 C-6.77 344.58 -6.77 344.58 -8.83 348.13 C-9.49 348.13 -10.15 348.13 -10.83 348.13 C-11.14 349.1 -11.14 349.1 -11.46 350.1 C-13.37 354.33 -16.04 357.88 -18.76 361.63 C-19.84 363.12 -20.91 364.61 -21.98 366.1 C-22.48 366.79 -22.98 367.49 -23.49 368.2 C-24.96 370.27 -24.96 370.27 -26.58 373.16 C-26.99 373.81 -27.4 374.46 -27.83 375.13 C-28.49 375.13 -29.15 375.13 -29.83 375.13 C-30.03 375.79 -30.24 376.45 -30.45 377.13 C-32.35 381.27 -35.03 384.55 -37.83 388.13 C-39.11 389.78 -40.39 391.43 -41.67 393.09 C-42.55 394.22 -43.43 395.35 -44.31 396.47 C-46.21 398.93 -47.95 401.34 -49.5 404.02 C-50.16 405.07 -50.16 405.07 -50.83 406.13 C-51.49 406.13 -52.15 406.13 -52.83 406.13 C-53.07 406.85 -53.31 407.56 -53.56 408.3 C-55.01 411.54 -56.8 413.7 -59.14 416.38 C-63.35 421.29 -67.31 426.34 -71.2 431.51 C-76.26 438.2 -81.55 444.61 -87.06 450.94 C-89.54 453.79 -91.95 456.69 -94.33 459.63 C-101.93 468.99 -109.86 478.08 -117.83 487.13 C-118.37 487.76 -118.92 488.39 -119.49 489.04 C-125.23 495.63 -131.05 502.15 -137 508.55 C-137.54 509.14 -138.08 509.72 -138.64 510.32 C-139.7 511.47 -140.77 512.61 -141.84 513.75 C-144.05 516.13 -146.02 518.42 -147.83 521.13 C-148.49 521.13 -149.15 521.13 -149.83 521.13 C-150.49 522.45 -151.15 523.77 -151.83 525.13 C-152.49 525.13 -153.15 525.13 -153.83 525.13 C-154.09 525.71 -154.36 526.29 -154.64 526.88 C-155.86 529.19 -157.13 531.15 -158.83 533.13 C-159.49 533.13 -160.15 533.13 -160.83 533.13 C-161.49 534.45 -162.15 535.77 -162.83 537.13 C-163.49 537.13 -164.15 537.13 -164.83 537.13 C-165.08 537.7 -165.34 538.28 -165.61 538.86 C-166.94 541.34 -168.48 543.26 -170.33 545.38 C-170.93 546.09 -171.54 546.79 -172.17 547.52 C-173.83 549.13 -173.83 549.13 -175.83 549.13 C-176.03 549.66 -176.24 550.19 -176.45 550.74 C-178.41 554.14 -181.12 556.7 -183.89 559.44 C-184.51 560.06 -185.14 560.69 -185.78 561.33 C-187.83 563.39 -189.9 565.44 -191.96 567.49 C-193.39 568.93 -194.83 570.36 -196.26 571.8 C-199.28 574.81 -202.29 577.81 -205.31 580.82 C-209.16 584.65 -213.01 588.49 -216.85 592.34 C-219.81 595.3 -222.78 598.27 -225.75 601.23 C-227.17 602.64 -228.59 604.06 -230 605.47 C-243.39 618.84 -243.39 618.84 -249.38 623.9 C-251.31 625.54 -253.07 627.31 -254.83 629.13 C-265.14 639.57 -265.14 639.57 -269.83 641.13 C-271.03 643.13 -271.03 643.13 -271.83 645.13 C-272.49 645.13 -273.15 645.13 -273.83 645.13 C-274.16 646.12 -274.49 647.11 -274.83 648.13 C-276.32 649.64 -276.32 649.64 -278.26 651.26 C-281.48 653.98 -284.64 656.74 -287.76 659.57 C-288.6 660.32 -289.43 661.07 -290.29 661.84 C-292 663.38 -293.7 664.93 -295.39 666.48 C-296.2 667.21 -297 667.94 -297.83 668.69 C-298.55 669.35 -299.27 670.02 -300.01 670.7 C-301.83 672.13 -301.83 672.13 -303.83 672.13 C-304.16 673.12 -304.49 674.11 -304.83 675.13 C-306.76 676.86 -306.76 676.86 -309.26 678.76 C-313.91 682.36 -318.28 686.17 -322.6 690.15 C-328.2 695.13 -328.2 695.13 -330.83 695.13 C-331.16 696.12 -331.49 697.11 -331.83 698.13 C-333.65 699.79 -333.65 699.79 -336.08 701.63 C-340.17 704.81 -344.15 708.07 -348.08 711.44 C-354.26 716.72 -360.62 721.75 -367.03 726.73 C-368.87 728.17 -370.71 729.61 -372.54 731.06 C-373.15 731.54 -373.77 732.02 -374.4 732.52 C-375.55 733.43 -376.7 734.34 -377.86 735.25 C-381.46 738.08 -385.1 740.85 -388.77 743.59 C-391.49 745.63 -394.17 747.7 -396.86 749.77 C-404.02 755.29 -411.26 760.66 -418.64 765.87 C-421.51 767.91 -424.36 769.98 -427.2 772.07 C-438.72 780.46 -450.59 788.35 -462.46 796.22 C-465.2 798.05 -467.94 799.88 -470.67 801.72 C-486.96 812.73 -503.93 822.59 -520.93 832.45 C-523.63 834.02 -526.33 835.6 -529.02 837.19 C-538.77 842.92 -548.62 848.25 -558.83 853.13 C-559.58 853.49 -560.34 853.86 -561.12 854.23 C-565.93 856.53 -570.74 858.8 -575.56 861.07 C-577.69 862.07 -579.82 863.07 -581.94 864.08 C-600.01 872.61 -618.57 880.7 -638.27 884.35 C-641.35 885.03 -643.92 885.96 -646.83 887.13 C-648.78 887.51 -650.74 887.84 -652.7 888.13 C-655.89 888.6 -658.8 889.12 -661.87 890.13 C-667.48 891.79 -673.4 891.83 -679.2 892.19 C-681.56 892.35 -683.93 892.5 -686.29 892.67 C-687.33 892.73 -688.37 892.8 -689.44 892.86 C-691.78 892.87 -691.78 892.87 -692.83 894.13 C-694.45 894.23 -696.08 894.26 -697.7 894.26 C-699.18 894.27 -699.18 894.27 -700.69 894.27 C-701.72 894.26 -702.76 894.26 -703.83 894.26 C-704.86 894.26 -705.9 894.26 -706.97 894.27 C-707.95 894.27 -708.94 894.26 -709.95 894.26 C-710.86 894.26 -711.77 894.26 -712.71 894.26 C-714.83 894.13 -714.83 894.13 -715.83 893.13 C-717.4 893.19 -717.4 893.19 -719.01 893.26 C-728.97 893.36 -738.86 890.26 -747.83 886.13 C-748.65 885.77 -749.47 885.41 -750.31 885.04 C-765.48 878.02 -778.8 864.69 -786.83 850.13 C-787.47 848.98 -787.47 848.98 -788.13 847.81 C-790.02 844.28 -790.83 842.2 -790.83 838.13 C-791.49 838.13 -792.15 838.13 -792.83 838.13 C-793.82 834.17 -794.81 830.21 -795.83 826.13 C-796.16 826.13 -796.49 826.13 -796.83 826.13 C-796.83 822.83 -796.83 819.53 -796.83 816.13 C-797.16 816.13 -797.49 816.13 -797.83 816.13 C-797.85 811.97 -797.87 807.81 -797.88 803.65 C-797.89 802.25 -797.89 800.84 -797.9 799.43 C-798.06 773.22 -798.06 773.22 -794.83 766.13 C-794.17 766.13 -793.51 766.13 -792.83 766.13 C-793.35 765.29 -793.35 765.29 -793.88 764.43 C-795.05 761.59 -794.76 760.35 -794.03 757.4 C-793.79 756.47 -793.56 755.53 -793.33 754.56 C-793.06 753.56 -792.79 752.55 -792.51 751.51 C-792.24 750.45 -791.97 749.4 -791.69 748.32 C-786.79 729.93 -780.73 711.01 -771.83 694.13 C-771.17 694.13 -770.51 694.13 -769.83 694.13 C-770.03 693.58 -770.24 693.04 -770.46 692.47 C-771.58 685.35 -764.88 676.11 -761.7 669.87 C-758.64 663.83 -755.78 657.69 -752.87 651.58 C-750.27 646.11 -747.61 640.69 -744.84 635.31 C-743.25 631.89 -742.32 628.9 -742.83 625.13 C-743.88 622.54 -745.13 620.16 -746.49 617.72 C-748.22 614.37 -749.19 610.99 -750.15 607.36 C-750.76 605.1 -750.76 605.1 -751.91 603.03 C-752.83 601.13 -752.83 601.13 -752.83 598.13 C-753.49 598.13 -754.15 598.13 -754.83 598.13 C-754.5 596.81 -754.17 595.49 -753.83 594.13 C-754.49 594.13 -755.15 594.13 -755.83 594.13 C-762.62 575.68 -762.62 575.68 -763.83 569.13 C-764.16 567.98 -764.49 566.82 -764.83 565.63 C-767.1 557.68 -767.1 557.68 -765.83 555.13 C-766.49 555.13 -767.15 555.13 -767.83 555.13 C-767.83 553.15 -767.83 551.17 -767.83 549.13 C-768.49 549.13 -769.15 549.13 -769.83 549.13 C-769.8 547.99 -769.8 547.99 -769.76 546.82 C-769.7 544.03 -769.7 544.03 -770.83 541.13 C-771.62 538.15 -772.24 535.15 -772.83 532.13 C-773.16 532.13 -773.49 532.13 -773.83 532.13 C-773.81 531.06 -773.78 529.99 -773.76 528.88 C-773.81 525.84 -774.07 523.97 -774.83 521.13 C-775.19 519.22 -775.55 517.3 -775.89 515.38 C-776.07 514.4 -776.24 513.41 -776.42 512.4 C-776.56 511.65 -776.69 510.9 -776.83 510.13 C-777.16 510.13 -777.49 510.13 -777.83 510.13 C-777.83 507.49 -777.83 504.85 -777.83 502.13 C-778.16 502.13 -778.49 502.13 -778.83 502.13 C-778.81 501.52 -778.8 500.91 -778.79 500.27 C-778.73 494.34 -779.13 488.61 -779.81 482.72 C-781.05 470.91 -781.13 459.16 -781.09 447.3 C-781.08 443.74 -781.09 440.18 -781.1 436.62 C-781.11 425.95 -781.02 415.51 -779.25 404.98 C-778.85 402.26 -778.75 399.75 -778.83 397.01 C-778.98 390.49 -778.65 382.77 -775.69 376.87 C-775.41 376.3 -775.12 375.72 -774.83 375.13 C-775.16 374.47 -775.49 373.81 -775.83 373.13 C-775.41 370.23 -774.94 367.38 -774.39 364.51 C-774.24 363.7 -774.09 362.9 -773.94 362.08 C-773.58 360.09 -773.2 358.11 -772.83 356.13 C-772.17 356.13 -771.51 356.13 -770.83 356.13 C-770.89 355.18 -770.95 354.23 -771.01 353.26 C-771.04 348.29 -769.4 343.79 -767.83 339.13 C-767.17 339.13 -766.51 339.13 -765.83 339.13 C-766.03 338.49 -766.24 337.85 -766.46 337.2 C-766.98 332.84 -765.87 329.26 -764.7 325.07 C-764.47 324.21 -764.24 323.36 -764 322.48 C-762.45 316.93 -760.57 311.69 -758.21 306.43 C-756.01 301.19 -754.23 295.8 -752.41 290.42 C-749.93 283.16 -747.15 276.1 -743.2 269.51 C-741.61 266.74 -740.44 264.22 -739.64 261.13 C-739.37 260.14 -739.1 259.15 -738.83 258.13 C-738.17 257.8 -737.51 257.47 -736.83 257.13 C-736.52 255.98 -736.21 254.82 -735.89 253.63 C-735.54 252.48 -735.19 251.32 -734.83 250.13 C-733.84 249.8 -732.85 249.47 -731.83 249.13 C-731.72 248.41 -731.61 247.7 -731.49 246.96 C-730.77 243.91 -729.67 241.62 -728.17 238.86 C-727.38 237.41 -727.38 237.41 -726.57 235.92 C-725.74 234.42 -725.74 234.42 -724.89 232.88 C-724.34 231.86 -723.79 230.84 -723.22 229.79 C-719.08 222.26 -719.08 222.26 -716.83 221.13 C-716.54 220.39 -716.25 219.65 -715.95 218.88 C-714.68 215.78 -712.94 213.71 -710.83 211.13 C-710.15 209.8 -709.49 208.47 -708.83 207.13 C-698.15 189.57 -698.15 189.57 -693.83 188.13 C-693.13 186.48 -692.47 184.81 -691.83 183.13 C-690.64 181.46 -689.38 179.84 -688.08 178.26 C-687.37 177.39 -686.66 176.53 -685.93 175.64 C-685.23 174.81 -684.54 173.98 -683.83 173.13 C-683.24 172.41 -682.65 171.7 -682.04 170.96 C-678.11 166.27 -678.11 166.27 -675.83 165.13 C-674.92 164.14 -674.06 163.12 -673.21 162.09 C-669.58 157.78 -665.67 153.81 -661.69 149.83 C-660.93 149.06 -660.17 148.3 -659.38 147.51 C-657.78 145.91 -656.19 144.3 -654.58 142.7 C-652.13 140.25 -649.68 137.78 -647.24 135.32 C-645.68 133.76 -644.12 132.2 -642.56 130.64 C-641.83 129.9 -641.1 129.16 -640.35 128.4 C-639.33 127.38 -639.33 127.38 -638.28 126.35 C-637.69 125.75 -637.09 125.15 -636.48 124.53 C-634.83 123.13 -634.83 123.13 -631.83 122.13 C-631.83 121.47 -631.83 120.81 -631.83 120.13 C-629.71 118.19 -629.71 118.19 -626.95 116.01 C-626.05 115.28 -625.14 114.56 -624.21 113.81 C-621.83 112.13 -621.83 112.13 -619.83 112.13 C-619.64 111.55 -619.45 110.98 -619.26 110.38 C-617.12 107.03 -614.32 106 -610.83 104.13 C-610.17 103.47 -609.51 102.81 -608.83 102.13 C-599.02 94.02 -588.04 87.18 -577.42 80.18 C-576.1 79.31 -574.8 78.44 -573.49 77.56 C-568.9 74.57 -564.1 72.38 -559.05 70.24 C-556.68 69.33 -556.68 69.33 -555.83 67.13 C-552.39 65.51 -549.08 64.21 -545.45 63.07 C-542.68 62.42 -542.68 62.42 -541.83 60.13 C-540.71 59.82 -539.6 59.51 -538.45 59.19 C-534.95 58.51 -534.95 58.51 -533.58 56.75 C-530.9 54.27 -527.59 53.37 -524.2 52.19 C-519.06 50.37 -514.07 48.38 -509.09 46.13 C-505.39 44.5 -501.62 43.09 -497.83 41.69 C-497.01 41.39 -496.18 41.09 -495.34 40.78 C-487.97 38.11 -480.52 35.83 -472.97 33.73 C-470.75 33.11 -468.54 32.47 -466.33 31.82 C-458.17 29.46 -450.06 27.44 -441.69 26.03 C-438.48 25.71 -438.48 25.71 -435.83 24.13 C-434.37 23.85 -432.9 23.62 -431.42 23.41 C-430.53 23.28 -429.64 23.16 -428.73 23.02 C-427.79 22.89 -426.85 22.76 -425.89 22.63 C-424.05 22.37 -422.2 22.11 -420.36 21.85 C-419.13 21.68 -419.13 21.68 -417.87 21.5 C-415.77 21.22 -415.77 21.22 -413.83 20.13 C-412.39 19.92 -410.95 19.76 -409.51 19.63 C-408.66 19.55 -407.82 19.47 -406.95 19.38 C-405.15 19.21 -403.36 19.05 -401.57 18.88 C-400.3 18.76 -400.3 18.76 -399.01 18.63 C-398.23 18.56 -397.45 18.49 -396.65 18.41 C-394.81 18.31 -394.81 18.31 -393.83 17.13 C-391.1 17.03 -388.39 16.99 -385.67 17 C-384.81 17 -383.96 17 -383.07 17 C-380.23 16.99 -377.39 16.99 -374.55 17 C-372.58 17 -370.62 17 -368.65 16.99 C-364.52 16.99 -360.39 17 -356.26 17 C-350.96 17.01 -345.66 17 -340.36 17 C-336.3 16.99 -332.23 16.99 -328.17 17 C-326.21 17 -324.26 17 -322.3 16.99 C-319.57 16.99 -316.85 17 -314.12 17 C-313.3 17 -312.49 17 -311.65 16.99 C-306.05 17.02 -306.05 17.02 -303.83 18.13 C-302.49 18.34 -301.14 18.5 -299.8 18.63 C-299.01 18.71 -298.21 18.8 -297.4 18.88 C-296.57 18.96 -295.74 19.05 -294.89 19.13 C-293.25 19.29 -291.62 19.46 -289.99 19.63 C-289.26 19.7 -288.54 19.77 -287.79 19.85 C-285.83 20.13 -285.83 20.13 -282.83 21.13 C-279.7 21.67 -276.58 22.15 -273.44 22.63 C-270.83 23.13 -270.83 23.13 -269.83 24.13 C-268.16 24.17 -266.49 24.17 -264.83 24.13 C-264.83 24.79 -264.83 25.45 -264.83 26.13 C-263.97 26.18 -263.11 26.23 -262.23 26.28 C-256.16 26.68 -250.62 27.16 -244.83 29.13 C-243.1 29.66 -241.37 30.18 -239.64 30.69 C-238.82 30.94 -238 31.19 -237.16 31.45 C-233.58 32.5 -229.97 33.33 -226.33 34.13 C-223.48 34.75 -220.65 35.41 -217.83 36.13 C-217.83 36.79 -217.83 37.45 -217.83 38.13 C-216.09 38.29 -216.09 38.29 -214.33 38.44 C-210.73 38.9 -207.59 39.82 -204.22 41.19 C-201.16 42.39 -198.06 43.44 -194.95 44.51 C-189.82 46.33 -185.04 48.4 -180.22 50.93 C-176.21 52.94 -172.02 54.53 -167.83 56.13 C-167.83 55.8 -167.83 55.47 -167.83 55.13 C-166.83 54.88 -165.84 54.64 -164.81 54.38 C-160.56 53.17 -156.92 51.21 -153.08 49.07 C-146.79 45.65 -140.44 42.46 -133.95 39.44 C-128.8 37.04 -123.72 34.6 -118.76 31.82 C-113.93 29.11 -109 27.1 -103.83 25.13 C-101.58 24.21 -99.33 23.3 -97.08 22.38 C-81.25 16.05 -65.54 10.43 -48.91 6.64 C-46.91 6.15 -44.95 5.59 -42.98 4.99 C-39.83 4.13 -39.83 4.13 -36.26 4.19 C-32.82 4.39 -32.82 4.39 -30.08 2.69 C-21.31 -1.52 -9.58 -0.03 0 0 Z M-15.83 1.13 C-15.83 1.46 -15.83 1.79 -15.83 2.13 C-13.85 2.13 -11.87 2.13 -9.83 2.13 C-9.83 1.8 -9.83 1.47 -9.83 1.13 C-11.81 1.13 -13.79 1.13 -15.83 1.13 Z M15.17 1.13 C15.17 1.46 15.17 1.79 15.17 2.13 C16.82 2.13 18.47 2.13 20.17 2.13 C20.17 1.8 20.17 1.47 20.17 1.13 C18.52 1.13 16.87 1.13 15.17 1.13 Z M-26.83 2.13 C-26.83 2.46 -26.83 2.79 -26.83 3.13 C-25.18 3.13 -23.53 3.13 -21.83 3.13 C-21.83 2.8 -21.83 2.47 -21.83 2.13 C-23.48 2.13 -25.13 2.13 -26.83 2.13 Z M-393.83 18.13 C-393.83 18.46 -393.83 18.79 -393.83 19.13 C-391.52 19.13 -389.21 19.13 -386.83 19.13 C-386.83 18.8 -386.83 18.47 -386.83 18.13 C-389.14 18.13 -391.45 18.13 -393.83 18.13 Z M-53.83 69.13 C-56.03 69.85 -58.24 70.56 -60.45 71.26 C-75.19 76.08 -90.76 81.63 -103.83 90.13 C-104.16 90.79 -104.49 91.45 -104.83 92.13 C-101.32 95.78 -97.63 98.96 -93.58 102.01 C-93 102.44 -92.43 102.88 -91.84 103.33 C-89.38 105.21 -86.91 107.07 -84.44 108.91 C-78.01 113.77 -72.16 119.19 -66.32 124.72 C-65.01 125.96 -63.68 127.18 -62.36 128.4 C-55.63 134.76 -52.65 139.66 -52.33 149.07 C-52.6 157.27 -54.54 162.89 -60.01 169.01 C-65.82 174.25 -71.15 175.37 -78.92 175.07 C-86.92 174.61 -92.44 173.38 -98.95 168.51 C-99.91 167.79 -100.87 167.08 -101.85 166.35 C-102.83 165.62 -103.82 164.88 -104.83 164.13 C-106.72 162.75 -108.62 161.38 -110.51 160.01 C-113.64 157.74 -116.74 155.45 -119.83 153.13 C-124.78 149.4 -129.8 145.76 -134.83 142.13 C-135.75 141.46 -136.66 140.79 -137.61 140.1 C-138.49 139.47 -139.36 138.84 -140.26 138.19 C-141.44 137.34 -141.44 137.34 -142.63 136.48 C-144.75 135.18 -146.4 134.57 -148.83 134.13 C-148.83 133.47 -148.83 132.81 -148.83 132.13 C-151.16 130.79 -153.49 129.46 -155.83 128.13 C-156.62 127.68 -157.41 127.22 -158.22 126.75 C-159.02 126.3 -159.82 125.85 -160.64 125.38 C-161.39 124.95 -162.14 124.52 -162.91 124.08 C-164.77 122.98 -164.77 122.98 -166.83 123.13 C-166.83 122.47 -166.83 121.81 -166.83 121.13 C-167.8 120.65 -168.76 120.16 -169.76 119.66 C-170.4 119.34 -171.04 119.02 -171.7 118.69 C-173.14 117.97 -174.58 117.26 -176.02 116.54 C-179.64 114.73 -183.26 112.91 -186.85 111.03 C-195.04 106.77 -203.23 103.36 -211.99 100.45 C-214.5 99.62 -216.84 98.69 -219.29 97.65 C-223.26 95.94 -227.28 94.54 -231.39 93.19 C-232.18 92.93 -232.97 92.67 -233.79 92.4 C-240.75 90.12 -247.75 88.05 -254.83 86.13 C-255.58 85.93 -256.34 85.72 -257.11 85.51 C-268.46 82.41 -268.46 82.41 -279.95 79.88 C-283.83 79.13 -283.83 79.13 -284.83 78.13 C-287.03 77.84 -289.24 77.61 -291.45 77.41 C-292.44 77.32 -292.44 77.32 -293.46 77.22 C-295.58 77.02 -297.7 76.82 -299.83 76.63 C-302.62 76.37 -305.41 76.11 -308.2 75.85 C-309.45 75.74 -310.69 75.62 -311.97 75.5 C-314.83 75.13 -314.83 75.13 -315.83 74.13 C-317.75 73.97 -319.67 73.88 -321.6 73.81 C-322.81 73.77 -324.02 73.73 -325.26 73.69 C-326.56 73.65 -327.86 73.61 -329.2 73.57 C-330.52 73.53 -331.84 73.48 -333.2 73.44 C-357 71.18 -357 71.18 -379.83 75.13 C-381.25 75.34 -382.68 75.5 -384.12 75.63 C-385.4 75.75 -385.4 75.75 -386.72 75.88 C-388.07 76 -388.07 76 -389.45 76.13 C-399.81 76.18 -399.81 76.18 -408.83 79.13 C-411.49 79.61 -414.15 80.04 -416.83 80.44 C-436.84 83.66 -456.94 88.73 -475.83 96.13 C-476.79 96.48 -477.75 96.84 -478.74 97.2 C-492.22 102.24 -505.3 108.21 -518.1 114.78 C-520.83 116.13 -520.83 116.13 -523.83 117.13 C-523.83 117.79 -523.83 118.45 -523.83 119.13 C-524.63 119.17 -525.43 119.21 -526.26 119.26 C-530.49 120.29 -533.15 122.18 -536.68 124.66 C-539.27 126.44 -542.01 127.72 -544.83 129.13 C-547.62 130.86 -550.38 132.64 -553.13 134.42 C-555.34 135.82 -557.54 137.13 -559.83 138.38 C-562.4 139.88 -563.8 141.07 -565.83 143.13 C-566.94 144.02 -568.08 144.89 -569.23 145.73 C-570.22 146.46 -570.22 146.46 -571.22 147.2 C-571.92 147.72 -572.61 148.23 -573.33 148.76 C-583.76 156.51 -594.18 164.49 -603.39 173.69 C-605.31 175.62 -607.24 177.33 -609.33 179.07 C-612.59 181.84 -615.25 184.7 -617.83 188.13 C-617.83 188.79 -617.83 189.45 -617.83 190.13 C-618.49 190.13 -619.15 190.13 -619.83 190.13 C-621.29 191.54 -621.29 191.54 -622.83 193.44 C-625.79 196.94 -628.84 200.33 -631.95 203.69 C-635.59 207.68 -638.77 211.69 -641.83 216.13 C-642.5 216.78 -642.5 216.78 -643.19 217.45 C-645.46 219.78 -647.18 222.38 -649.01 225.07 C-649.41 225.64 -649.8 226.22 -650.21 226.81 C-656.59 236.13 -662.88 245.52 -668.83 255.13 C-669.2 255.73 -669.57 256.34 -669.96 256.96 C-676.34 267.34 -681.76 277.98 -686.85 289.05 C-688.15 291.83 -689.58 294.54 -691.01 297.26 C-694.1 303.35 -696.26 309.7 -698.45 316.16 C-699.51 319.26 -700.68 322.29 -701.95 325.32 C-704.05 330.4 -705.46 335.64 -706.9 340.93 C-707.83 344.13 -707.83 344.13 -708.88 346.74 C-709.85 349.19 -710.37 351.47 -710.83 354.07 C-711.31 356.77 -711.87 359.24 -712.77 361.84 C-714.14 366.11 -714.95 370.41 -715.76 374.82 C-716.02 376.2 -716.02 376.2 -716.29 377.61 C-718.78 391.09 -720.86 404.59 -722.4 418.2 C-722.83 421.13 -722.83 421.13 -723.83 422.13 C-723.93 423.75 -723.96 425.37 -723.97 427 C-723.98 428.04 -723.98 429.07 -723.99 430.14 C-723.99 431.28 -723.99 432.41 -723.99 433.58 C-724 434.73 -724 435.89 -724 437.09 C-724.01 439.55 -724.01 442.01 -724.01 444.47 C-724.01 448.22 -724.03 451.97 -724.05 455.72 C-724.05 458.11 -724.06 460.5 -724.06 462.89 C-724.06 464.01 -724.07 465.13 -724.08 466.28 C-724.06 472 -723.69 476.73 -721.83 482.13 C-721.46 484.52 -721.15 486.92 -720.89 489.32 C-720.72 490.73 -720.55 492.14 -720.38 493.55 C-720.3 494.29 -720.21 495.04 -720.11 495.8 C-717.84 514.19 -713.92 531.82 -708.83 549.63 C-708.25 551.63 -707.7 553.64 -707.18 555.65 C-705.75 561.15 -704.04 566.36 -701.86 571.6 C-700.78 574.23 -699.83 576.89 -698.89 579.57 C-697.17 584.34 -695.17 588.93 -693.03 593.53 C-691.99 595.78 -690.99 598.04 -690.01 600.32 C-687.49 606.02 -684.65 611.56 -681.84 617.12 C-680.6 619.58 -679.39 622.04 -678.19 624.51 C-675.5 630.03 -672.62 635.14 -669.13 640.19 C-667.44 642.71 -666.19 645.41 -664.83 648.13 C-661.19 653.92 -657.2 659.49 -653.24 665.06 C-651.83 667.13 -651.83 667.13 -650.83 669.13 C-650.17 669.13 -649.51 669.13 -648.83 669.13 C-648.56 669.86 -648.3 670.6 -648.03 671.35 C-646.81 674.17 -645.43 676.18 -643.51 678.57 C-642.89 679.34 -642.28 680.11 -641.64 680.9 C-641.04 681.64 -640.44 682.37 -639.83 683.13 C-639.33 683.76 -638.84 684.39 -638.33 685.04 C-637.21 686.45 -636.02 687.8 -634.83 689.13 C-634.17 689.13 -633.51 689.13 -632.83 689.13 C-632.61 689.84 -632.4 690.54 -632.18 691.27 C-630.47 694.87 -627.99 697.24 -625.14 699.94 C-624.04 701.01 -622.94 702.08 -621.85 703.15 C-621.32 703.66 -620.79 704.17 -620.25 704.7 C-618.51 706.45 -616.91 708.29 -615.33 710.19 C-609.78 716.72 -602.95 723.38 -595.83 728.13 C-595.17 728.13 -594.51 728.13 -593.83 728.13 C-593.5 729.12 -593.17 730.11 -592.83 731.13 C-591.01 732.82 -591.01 732.82 -588.76 734.44 C-587.55 735.35 -587.55 735.35 -586.32 736.28 C-585.5 736.89 -584.67 737.5 -583.83 738.13 C-583.07 738.72 -582.31 739.31 -581.52 739.92 C-580.82 740.46 -580.11 741.01 -579.39 741.57 C-578.75 742.06 -578.11 742.56 -577.46 743.06 C-575.87 744.31 -575.87 744.31 -573.83 744.13 C-573.83 744.79 -573.83 745.45 -573.83 746.13 C-572.44 747.11 -571.05 748.08 -569.62 748.98 C-567.71 750.21 -565.9 751.53 -564.08 752.88 C-561.21 755.32 -561.21 755.32 -558.83 755.13 C-558.83 755.79 -558.83 756.45 -558.83 757.13 C-555.35 759.74 -551.55 761.88 -547.83 764.13 C-546.43 765.05 -546.43 765.05 -545 765.99 C-540.23 768.95 -536.99 770.68 -531.33 769.69 C-527.89 768.81 -526.25 767.66 -523.83 765.13 C-522.84 764.8 -521.85 764.47 -520.83 764.13 C-519.15 762.81 -517.48 761.48 -515.83 760.13 C-513.97 758.87 -512.09 757.64 -510.2 756.44 C-509.26 755.84 -508.32 755.24 -507.35 754.62 C-504.83 753.13 -504.83 753.13 -501.83 752.13 C-500.68 750.95 -499.53 749.77 -498.39 748.58 C-495.92 746.29 -493.11 744.56 -490.28 742.73 C-486.05 739.97 -481.95 737.04 -477.83 734.13 C-476.01 732.86 -474.2 731.59 -472.39 730.32 C-471.59 729.75 -470.78 729.19 -469.96 728.61 C-468.26 727.43 -466.55 726.28 -464.83 725.13 C-464.83 724.47 -464.83 723.81 -464.83 723.13 C-464.11 722.87 -463.39 722.62 -462.65 722.35 C-459.66 721.06 -457.32 719.49 -454.7 717.57 C-451.99 715.59 -450.02 714.2 -446.83 713.13 C-445.14 711.49 -443.47 709.82 -441.83 708.13 C-439.32 705.94 -437.39 704.34 -434.26 703.19 C-431.11 701.82 -429.92 699.82 -427.83 697.13 C-426.17 696.11 -424.51 695.11 -422.83 694.13 C-422.83 693.47 -422.83 692.81 -422.83 692.13 C-422.1 691.87 -421.37 691.62 -420.62 691.35 C-417.7 690.07 -415.61 688.57 -413.14 686.57 C-408.98 683.21 -408.98 683.21 -406.83 682.13 C-406.83 681.47 -406.83 680.81 -406.83 680.13 C-405.84 679.8 -404.85 679.47 -403.83 679.13 C-403.83 678.47 -403.83 677.81 -403.83 677.13 C-403.12 676.89 -402.41 676.65 -401.67 676.41 C-398.37 674.92 -396.03 673.03 -393.26 670.69 C-387.94 666.21 -387.94 666.21 -385.49 664.47 C-384.94 664.03 -384.39 663.59 -383.83 663.13 C-383.83 662.47 -383.83 661.81 -383.83 661.13 C-382.77 660.8 -382.77 660.8 -381.7 660.47 C-378.15 658.82 -375.66 656.45 -372.89 653.76 C-369.88 650.85 -366.99 648.15 -363.45 645.9 C-362.58 645.32 -361.72 644.73 -360.83 644.13 C-360.83 643.47 -360.83 642.81 -360.83 642.13 C-359.96 641.94 -359.09 641.76 -358.2 641.57 C-354.6 640.04 -353.11 638.34 -350.72 635.33 C-345.51 629.28 -339.15 623.58 -332.58 619.07 C-331.67 618.43 -330.76 617.79 -329.83 617.13 C-329.83 616.47 -329.83 615.81 -329.83 615.13 C-328.51 614.47 -327.19 613.81 -325.83 613.13 C-325.83 612.47 -325.83 611.81 -325.83 611.13 C-324.98 610.97 -324.13 610.8 -323.26 610.63 C-319.19 608.85 -317.52 606.79 -314.74 603.41 C-312.72 601.01 -310.6 598.79 -308.39 596.57 C-307.71 595.89 -307.03 595.2 -306.33 594.5 C-304.34 592.62 -302.32 590.83 -300.24 589.05 C-294.25 583.85 -288.78 578.11 -283.24 572.45 C-281.81 570.99 -280.38 569.54 -278.94 568.09 C-278.1 567.23 -277.26 566.38 -276.4 565.49 C-273.71 563.02 -270.88 561.13 -267.83 559.13 C-266.5 557.97 -265.21 556.77 -263.96 555.53 C-262.97 554.55 -262.97 554.55 -261.97 553.54 C-261.3 552.87 -260.64 552.2 -259.95 551.51 C-259.26 550.82 -258.57 550.14 -257.87 549.44 C-257.22 548.79 -256.57 548.14 -255.9 547.47 C-255.01 546.58 -255.01 546.58 -254.11 545.67 C-252.61 544.21 -252.61 544.21 -252.83 542.13 C-251.51 541.47 -250.19 540.81 -248.83 540.13 C-248.83 539.47 -248.83 538.81 -248.83 538.13 C-248.23 537.86 -247.64 537.59 -247.02 537.31 C-244.86 536.15 -243.43 534.99 -241.7 533.27 C-241.14 532.71 -240.58 532.15 -240 531.58 C-239.43 531 -238.85 530.42 -238.26 529.82 C-237.69 529.25 -237.11 528.68 -236.52 528.09 C-235.96 527.53 -235.4 526.97 -234.82 526.39 C-234.07 525.63 -234.07 525.63 -233.3 524.86 C-231.72 523.11 -231.72 523.11 -230.45 520.76 C-228.55 517.69 -226.35 515.41 -223.79 512.86 C-223.31 512.39 -222.83 511.91 -222.34 511.41 C-221.33 510.41 -220.32 509.41 -219.31 508.41 C-217.76 506.88 -216.22 505.34 -214.68 503.79 C-207.12 496.28 -207.12 496.28 -204.83 495.13 C-204.24 494.08 -204.24 494.08 -203.64 493.01 C-201.2 489.13 -198.1 486.19 -194.83 483.01 C-194.2 482.39 -193.57 481.77 -192.92 481.13 C-191.75 479.97 -190.58 478.82 -189.4 477.68 C-184.28 472.66 -179.73 467.34 -175.39 461.63 C-172.7 458.13 -169.83 455.08 -166.65 452.02 C-163.76 449.03 -161.26 445.75 -158.72 442.46 C-156.83 440.13 -156.83 440.13 -154.59 437.95 C-152.59 436.31 -152.59 436.31 -152.83 434.13 C-151.84 433.8 -150.85 433.47 -149.83 433.13 C-148.46 431.15 -147.13 429.15 -145.83 427.13 C-144.18 425.2 -142.49 423.31 -140.76 421.44 C-139.91 420.51 -139.05 419.58 -138.17 418.62 C-136.41 416.76 -134.65 414.92 -132.83 413.13 C-133.16 412.47 -133.49 411.81 -133.83 411.13 C-133.25 410.92 -132.67 410.72 -132.08 410.51 C-129.63 409.01 -128.59 407.47 -127.11 405.05 C-124.81 401.61 -122.08 398.49 -119.44 395.3 C-117.63 393.31 -117.63 393.31 -117.83 391.13 C-116.84 390.8 -115.85 390.47 -114.83 390.13 C-113.46 388.15 -112.13 386.15 -110.83 384.13 C-110.17 383.49 -109.51 382.85 -108.83 382.19 C-107.02 380.33 -106.05 378.87 -104.83 376.63 C-103.18 373.61 -101.31 371.53 -98.83 369.13 C-95.88 365.48 -95.88 365.48 -94.83 361.13 C-93.84 360.8 -92.85 360.47 -91.83 360.13 C-90.89 358.81 -89.97 357.49 -89.11 356.12 C-87.52 353.66 -85.81 351.31 -84.08 348.94 C-83.39 348 -82.7 347.06 -82 346.09 C-80.52 344.07 -79.03 342.05 -77.53 340.04 C-76.8 339.06 -76.08 338.08 -75.33 337.07 C-74.66 336.17 -73.99 335.27 -73.29 334.35 C-71.64 332.3 -71.64 332.3 -71.83 330.13 C-71.17 330.13 -70.51 330.13 -69.83 330.13 C-68.28 328.02 -68.28 328.02 -66.7 325.32 C-57.77 310.87 -57.77 310.87 -53.22 306.63 C-51.4 304.67 -50.78 302.62 -49.83 300.13 C-46.09 293.72 -41.81 287.66 -37.52 281.61 C-35.24 278.27 -33.21 274.79 -31.16 271.3 C-29.83 269.13 -29.83 269.13 -27.76 266.63 C-25.28 263.43 -23.69 259.99 -21.97 256.34 C-20.83 254.13 -20.83 254.13 -18.83 252.13 C-18.15 250.47 -17.49 248.8 -16.83 247.13 C-15.83 245.46 -14.83 243.8 -13.83 242.13 C-12.53 239.54 -11.26 236.94 -10.01 234.34 C-8.83 232.13 -8.83 232.13 -6.83 230.13 C-6.52 229.33 -6.21 228.52 -5.89 227.69 C-4.83 225.13 -4.83 225.13 -3.26 223.63 C-1.63 222.22 -1.63 222.22 -1.49 220.03 C-0.57 216.04 1.32 212.82 3.3 209.26 C7.58 201.34 11.49 193.34 15.17 185.13 C15.69 183.99 16.2 182.85 16.73 181.68 C24.08 164.98 30.65 147.06 34.17 129.13 C34.83 129.13 35.49 129.13 36.17 129.13 C35.84 128.14 35.51 127.15 35.17 126.13 C35.78 119.99 36.93 113.89 39.17 108.13 C39.5 108.13 39.83 108.13 40.17 108.13 C40.22 105.8 40.21 103.46 40.17 101.13 C39.84 100.8 39.51 100.47 39.17 100.13 C39.1 98.28 39.09 96.42 39.11 94.57 C39.12 93.56 39.13 92.54 39.14 91.5 C39.16 90.33 39.16 90.33 39.17 89.13 C39.5 89.13 39.83 89.13 40.17 89.13 C40.17 87.48 40.17 85.83 40.17 84.13 C39.84 84.13 39.51 84.13 39.17 84.13 C38.84 82.15 38.51 80.17 38.17 78.13 C37.51 78.13 36.85 78.13 36.17 78.13 C36.02 76.55 36.02 76.55 35.86 74.94 C34.74 68.7 32.24 65.78 27.17 62.13 C18.62 58.43 10.04 57.36 0.8 57.38 C-1.05 57.38 -1.05 57.38 -2.93 57.38 C-20.39 57.79 -37.62 62.83 -53.83 69.13 Z M37.17 114.13 C38.17 118.13 38.17 118.13 38.17 118.13 Z M36.17 122.13 C37.17 124.13 37.17 124.13 37.17 124.13 Z M33.17 133.13 C34.17 135.13 34.17 135.13 34.17 135.13 Z M32.17 138.13 C33.17 140.13 33.17 140.13 33.17 140.13 Z M24.17 162.13 C25.17 164.13 25.17 164.13 25.17 164.13 Z M-749.83 285.13 C-748.83 287.13 -748.83 287.13 -748.83 287.13 Z M-757.83 307.13 C-756.83 309.13 -756.83 309.13 -756.83 309.13 Z M-760.83 315.13 C-759.83 318.13 -759.83 318.13 -759.83 318.13 Z M-764.83 329.13 C-763.83 331.13 -763.83 331.13 -763.83 331.13 Z M-768.83 344.13 C-767.83 346.13 -767.83 346.13 -767.83 346.13 Z M-769.83 349.13 C-768.83 351.13 -768.83 351.13 -768.83 351.13 Z M-772.83 361.13 C-771.83 364.13 -771.83 364.13 -771.83 364.13 Z M-773.83 367.13 C-772.83 370.13 -772.83 370.13 -772.83 370.13 Z M-776.83 382.13 C-776.83 383.78 -776.83 385.43 -776.83 387.13 C-776.5 387.13 -776.17 387.13 -775.83 387.13 C-775.83 385.48 -775.83 383.83 -775.83 382.13 C-776.16 382.13 -776.49 382.13 -776.83 382.13 Z M-777.83 392.13 C-776.83 396.13 -776.83 396.13 -776.83 396.13 Z M20.17 470.13 C20.17 473.43 20.17 476.73 20.17 480.13 C20.5 480.13 20.83 480.13 21.17 480.13 C21.17 476.83 21.17 473.53 21.17 470.13 C20.84 470.13 20.51 470.13 20.17 470.13 Z M17.17 501.13 C18.17 505.13 18.17 505.13 18.17 505.13 Z M16.17 511.13 C17.17 513.13 17.17 513.13 17.17 513.13 Z M13.17 524.13 C14.17 527.13 14.17 527.13 14.17 527.13 Z M10.17 537.13 C11.17 539.13 11.17 539.13 11.17 539.13 Z M9.17 542.13 C10.17 544.13 10.17 544.13 10.17 544.13 Z M7.17 548.13 C8.17 550.13 8.17 550.13 8.17 550.13 Z M6.17 551.13 C7.17 554.13 7.17 554.13 7.17 554.13 Z M3.17 561.13 C4.17 563.13 4.17 563.13 4.17 563.13 Z M-2.83 579.13 C-1.83 581.13 -1.83 581.13 -1.83 581.13 Z M-5.83 586.13 C-4.83 588.13 -4.83 588.13 -4.83 588.13 Z M-17.83 613.13 C-16.83 615.13 -16.83 615.13 -16.83 615.13 Z M-749.83 647.13 C-748.83 649.13 -748.83 649.13 -748.83 649.13 Z M-753.83 655.13 C-752.83 657.13 -752.83 657.13 -752.83 657.13 Z M-757.83 663.13 C-756.83 665.13 -756.83 665.13 -756.83 665.13 Z M-705.83 692.13 C-716.4 709.63 -723.68 729.7 -729.83 749.13 C-730.39 750.74 -730.95 752.34 -731.51 753.94 C-732.82 757.83 -733.61 761.75 -734.36 765.78 C-734.76 767.82 -735.31 769.82 -735.89 771.82 C-738.12 779.72 -738.04 787.7 -738.07 795.84 C-738.08 797.99 -738.11 800.15 -738.14 802.31 C-738.19 809.68 -737.96 816.31 -734.83 823.13 C-734.35 824.18 -733.88 825.23 -733.39 826.32 C-729.43 830.67 -724.31 833.08 -718.83 835.13 C-718.17 834.8 -717.51 834.47 -716.83 834.13 C-716.83 834.79 -716.83 835.45 -716.83 836.13 C-708.91 837.51 -701.83 837.7 -694.01 835.64 C-690.22 834.76 -686.38 834.44 -682.51 834.07 C-676.59 833.54 -676.59 833.54 -670.83 832.13 C-668.79 831.57 -666.76 831.02 -664.72 830.47 C-657.7 828.56 -650.84 826.58 -644.09 823.83 C-641.57 823.05 -639.45 823.11 -636.83 823.13 C-636.37 822.68 -635.92 822.22 -635.45 821.76 C-633 819.31 -630.13 819 -626.83 818.13 C-626.17 817.8 -625.51 817.47 -624.83 817.13 C-622.83 816.13 -622.83 816.13 -619.2 815.13 C-615.79 814.41 -615.79 814.41 -613.83 812.13 C-611.91 811.22 -609.97 810.38 -608.01 809.57 C-606.46 808.92 -606.46 808.92 -604.87 808.25 C-602.17 807.26 -599.65 806.65 -596.83 806.13 C-596.17 805.8 -595.51 805.47 -594.83 805.13 C-596.18 800.23 -598.94 798.24 -603.01 795.57 C-608.52 791.81 -613.82 787.87 -619.01 783.69 C-619.65 783.18 -620.28 782.68 -620.94 782.15 C-623.71 779.92 -626.31 777.65 -628.83 775.13 C-630.05 774.05 -631.28 772.97 -632.52 771.9 C-636.69 768.28 -640.74 764.54 -644.76 760.76 C-645.46 760.1 -646.16 759.44 -646.88 758.77 C-653.84 752.2 -660.67 745.61 -666.9 738.34 C-668.78 736.18 -670.72 734.09 -672.67 732.01 C-679.17 725.04 -685.03 717.68 -690.83 710.13 C-692.73 707.66 -694.63 705.2 -696.53 702.73 C-697.8 701.1 -699.06 699.46 -700.32 697.82 C-700.89 697.08 -701.46 696.34 -702.05 695.58 C-702.82 694.58 -702.82 694.58 -703.6 693.56 C-704.21 692.85 -704.21 692.85 -704.83 692.13 C-705.16 692.13 -705.49 692.13 -705.83 692.13 Z M-780.83 717.13 C-779.83 719.13 -779.83 719.13 -779.83 719.13 Z M-787.83 738.13 C-786.83 740.13 -786.83 740.13 -786.83 740.13 Z M-788.83 742.13 C-787.83 744.13 -787.83 744.13 -787.83 744.13 Z M-791.83 753.13 C-790.83 755.13 -790.83 755.13 -790.83 755.13 Z M-792.83 758.13 C-791.83 760.13 -791.83 760.13 -791.83 760.13 Z M-535.83 770.13 C-531.83 771.13 -531.83 771.13 -531.83 771.13 Z M-795.83 771.13 C-795.83 773.11 -795.83 775.09 -795.83 777.13 C-795.5 777.13 -795.17 777.13 -794.83 777.13 C-794.83 775.15 -794.83 773.17 -794.83 771.13 C-795.16 771.13 -795.49 771.13 -795.83 771.13 Z M-796.83 785.13 C-796.83 788.76 -796.83 792.39 -796.83 796.13 C-796.5 796.13 -796.17 796.13 -795.83 796.13 C-795.83 792.5 -795.83 788.87 -795.83 785.13 C-796.16 785.13 -796.49 785.13 -796.83 785.13 Z M-305.83 816.13 C-305.83 816.46 -305.83 816.79 -305.83 817.13 C-303.85 817.13 -301.87 817.13 -299.83 817.13 C-299.83 816.8 -299.83 816.47 -299.83 816.13 C-301.81 816.13 -303.79 816.13 -305.83 816.13 Z M-344.83 819.13 C-344.83 819.46 -344.83 819.79 -344.83 820.13 C-340.54 820.13 -336.25 820.13 -331.83 820.13 C-331.83 819.8 -331.83 819.47 -331.83 819.13 C-336.12 819.13 -340.41 819.13 -344.83 819.13 Z M-363.83 820.13 C-363.83 820.46 -363.83 820.79 -363.83 821.13 C-361.52 821.13 -359.21 821.13 -356.83 821.13 C-356.83 820.8 -356.83 820.47 -356.83 820.13 C-359.14 820.13 -361.45 820.13 -363.83 820.13 Z M-681.83 834.13 C-677.83 835.13 -677.83 835.13 -677.83 835.13 Z M-691.83 835.13 C-691.83 835.46 -691.83 835.79 -691.83 836.13 C-689.85 836.13 -687.87 836.13 -685.83 836.13 C-685.83 835.8 -685.83 835.47 -685.83 835.13 C-687.81 835.13 -689.79 835.13 -691.83 835.13 Z M-386.83 843.13 C-385.83 847.13 -385.83 847.13 -385.83 847.13 Z " fill="#5F66B0" transform="translate(1012.826171875,98.86962890625)"/>
<path d="M0 0 C15.84 0 31.68 0 48 0 C48 0.33 48 0.66 48 1 C32.16 1 16.32 1 0 1 C0 0.67 0 0.34 0 0 Z " fill="#6067B1" transform="translate(637,115)"/>
<path d="M0 0 C0.33 0 0.66 0 1 0 C1 15.51 1 31.02 1 47 C0.67 47 0.34 47 0 47 C0 31.49 0 15.98 0 0 Z " fill="#6067B1" transform="translate(231,522)"/>
<path d="M0 0 C3.3 0 6.6 0 10 0 C10 0.33 10 0.66 10 1 C6.7 1 3.4 1 0 1 C0 0.67 0 0.34 0 0 Z " fill="#000002" transform="translate(928,275)"/>
<path d="M0 0 C0.33 0 0.66 0 1 0 C1 2.31 1 4.62 1 7 C0.67 7 0.34 7 0 7 C0 4.69 0 2.38 0 0 Z " fill="#000002" transform="translate(961,245)"/>
<path d="M0 0 C1.65 0 3.3 0 5 0 C5 0.33 5 0.66 5 1 C3.35 1 1.7 1 0 1 C0 0.67 0 0.34 0 0 Z " fill="#000002" transform="translate(321,992)"/>
<path d="M0 0 C1.65 0 3.3 0 5 0 C5 0.33 5 0.66 5 1 C3.35 1 1.7 1 0 1 C0 0.67 0 0.34 0 0 Z " fill="#000002" transform="translate(292,992)"/>
<path d="M0 0 C0.33 0 0.66 0 1 0 C1 1.65 1 3.3 1 5 C0.67 5 0.34 5 0 5 C0 3.35 0 1.7 0 0 Z " fill="#000002" transform="translate(290,569)"/>
<path d="M0 0 C1 4 1 4 1 4 Z " fill="#6067B1" transform="translate(232,586)"/>
<path d="M0 0 C1 4 1 4 1 4 Z " fill="#000002" transform="translate(290,521)"/>
<path d="M0 0 C4 1 4 1 4 1 Z " fill="#000002" transform="translate(693,174)"/>
<path d="M0 0 C3 1 3 1 3 1 Z " fill="#6067B1" transform="translate(306,934)"/>
<path d="M0 0 C0.99 0.5 0.99 0.5 2 1 C1.01 1.5 1.01 1.5 0 2 C0 1.34 0 0.68 0 0 Z " fill="#6067B1" transform="translate(864,857)"/>
<path d="M0 0 C0.99 0.5 0.99 0.5 2 1 C1.01 1.5 1.01 1.5 0 2 C0 1.34 0 0.68 0 0 Z " fill="#6067B1" transform="translate(579,799)"/>
<path d="M0 0 C0.99 0.5 0.99 0.5 2 1 C1.01 1.5 1.01 1.5 0 2 C0 1.34 0 0.68 0 0 Z " fill="#6067B1" transform="translate(691,706)"/>
<path d="M0 0 C0.99 0.5 0.99 0.5 2 1 C1.01 1.5 1.01 1.5 0 2 C0 1.34 0 0.68 0 0 Z " fill="#6067B1" transform="translate(825,572)"/>
<path d="M0 0 C0.99 0.5 0.99 0.5 2 1 C1.01 1.5 1.01 1.5 0 2 C0 1.34 0 0.68 0 0 Z " fill="#6067B1" transform="translate(317,286)"/>
<path d="M0 0 C0.99 0.5 0.99 0.5 2 1 C1.01 1.5 1.01 1.5 0 2 C0 1.34 0 0.68 0 0 Z " fill="#6067B1" transform="translate(379,220)"/>
<path d="M0 0 C0.99 0.5 0.99 0.5 2 1 C1.01 1.5 1.01 1.5 0 2 C0 1.34 0 0.68 0 0 Z " fill="#6067B1" transform="translate(402,201)"/>
<path d="M0 0 C2 1 2 1 2 1 Z " fill="#6067B1" transform="translate(303,934)"/>
<path d="M0 0 C2 1 2 1 2 1 Z " fill="#6067B1" transform="translate(386,915)"/>
<path d="M0 0 C2 1 2 1 2 1 Z " fill="#6067B1" transform="translate(820,882)"/>
<path d="M0 0 C2 1 2 1 2 1 Z " fill="#6067B1" transform="translate(828,878)"/>
<path d="" fill="#6067B1" transform="translate(0,0)"/>
<path d="" fill="#6067B1" transform="translate(0,0)"/>
<path d="" fill="#6067B1" transform="translate(0,0)"/>
<path d="" fill="#6067B1" transform="translate(0,0)"/>
<path d="" fill="#000002" transform="translate(0,0)"/>
<path d="" fill="#000002" transform="translate(0,0)"/>
<path d="" fill="#6067B1" transform="translate(0,0)"/>
<path d="" fill="#6067B1" transform="translate(0,0)"/>
<path d="" fill="#6067B1" transform="translate(0,0)"/>
<path d="" fill="#6067B1" transform="translate(0,0)"/>
<path d="" fill="#6067B1" transform="translate(0,0)"/>
<path d="" fill="#6067B1" transform="translate(0,0)"/>
<path d="" fill="#6067B1" transform="translate(0,0)"/>
<path d="" fill="#6067B1" transform="translate(0,0)"/>
<path d="" fill="#6067B1" transform="translate(0,0)"/>
<path d="" fill="#6067B1" transform="translate(0,0)"/>
<path d="" fill="#6067B1" transform="translate(0,0)"/>
<path d="" fill="#6067B1" transform="translate(0,0)"/>
<path d="" fill="#6067B1" transform="translate(0,0)"/>
<path d="" fill="#6067B1" transform="translate(0,0)"/>
<path d="" fill="#6067B1" transform="translate(0,0)"/>
<path d="" fill="#6067B1" transform="translate(0,0)"/>
<path d="" fill="#6067B1" transform="translate(0,0)"/>
<path d="" fill="#6067B1" transform="translate(0,0)"/>
<path d="" fill="#6067B1" transform="translate(0,0)"/>
<path d="" fill="#6067B1" transform="translate(0,0)"/>
<path d="" fill="#6067B1" transform="translate(0,0)"/>
<path d="" fill="#6067B1" transform="translate(0,0)"/>
<path d="" fill="#6067B1" transform="translate(0,0)"/>
<path d="" fill="#6067B1" transform="translate(0,0)"/>
<path d="" fill="#6067B1" transform="translate(0,0)"/>
<path d="" fill="#6067B1" transform="translate(0,0)"/>
<path d="" fill="#6067B1" transform="translate(0,0)"/>
<path d="" fill="#6067B1" transform="translate(0,0)"/>
<path d="" fill="#6067B1" transform="translate(0,0)"/>
<path d="" fill="#6067B1" transform="translate(0,0)"/>
<path d="" fill="#6067B1" transform="translate(0,0)"/>
<path d="" fill="#6067B1" transform="translate(0,0)"/>
<path d="" fill="#6067B1" transform="translate(0,0)"/>
<path d="" fill="#6067B1" transform="translate(0,0)"/>
<path d="" fill="#6067B1" transform="translate(0,0)"/>
<path d="" fill="#6067B1" transform="translate(0,0)"/>
<path d="" fill="#6067B1" transform="translate(0,0)"/>
<path d="" fill="#6067B1" transform="translate(0,0)"/>
<path d="" fill="#6067B1" transform="translate(0,0)"/>
<path d="" fill="#000002" transform="translate(0,0)"/>
<path d="" fill="#6067B1" transform="translate(0,0)"/>
<path d="" fill="#6067B1" transform="translate(0,0)"/>
<path d="" fill="#6067B1" transform="translate(0,0)"/>
<path d="" fill="#6067B1" transform="translate(0,0)"/>
<path d="" fill="#6067B1" transform="translate(0,0)"/>
</svg>
