<?xml version="1.0" encoding="UTF-8"?>
<!-- Generator: visioncortex VTracer 0.6.3 -->
<svg version="1.1" xmlns="http://www.w3.org/2000/svg" width="1280" height="1280">
<path d="M0 0 C422.4 0 844.8 0 1280 0 C1280 422.4 1280 844.8 1280 1280 C857.6 1280 435.2 1280 0 1280 C0 857.6 0 435.2 0 0 Z " fill="#000002" transform="translate(0,0)"/>
<path d="M0 0 C0.19 13.73 0.33 27.47 0.41 41.2 C0.46 47.58 0.51 53.96 0.6 60.33 C0.69 66.49 0.74 72.64 0.76 78.79 C0.77 81.14 0.8 83.49 0.85 85.84 C0.9 89.13 0.91 92.41 0.91 95.7 C0.94 96.68 0.97 97.65 1 98.65 C0.92 105.1 0.92 105.1 -1.7 107.67 C-3.75 108.98 -5.77 110.02 -8 111 C-9.37 111.7 -10.74 112.39 -12.11 113.1 C-14.15 114.09 -16.21 115.07 -18.26 116.05 C-21.39 117.57 -23.99 118.99 -26.73 121.18 C-29.04 123.04 -30.31 123.56 -33.19 124 C-35.07 124.5 -35.07 124.5 -37 125 C-37.7 126.32 -38.37 127.65 -39 129 C-41.33 129.69 -43.66 130.35 -46 131 C-46.87 131.9 -46.87 131.9 -47.76 132.82 C-50.63 135.61 -53.87 137.12 -57.44 138.81 C-58.87 139.51 -60.3 140.2 -61.72 140.9 C-62.44 141.25 -63.15 141.6 -63.89 141.96 C-67.08 143.54 -70.23 145.2 -73.38 146.88 C-74.41 147.43 -75.45 147.98 -76.52 148.55 C-79.07 149.9 -79.07 149.9 -81 152 C-83.33 153 -85.67 154 -88 155 C-88.66 155.66 -89.32 156.32 -90 157 C-91.3 157.43 -92.62 157.82 -93.94 158.19 C-96.45 159.06 -97.68 159.53 -99.19 161.75 C-100.12 163.88 -100.12 163.88 -101 167 C-100.22 167.21 -99.43 167.41 -98.62 167.62 C-94.69 169.12 -91.43 171.07 -87.87 173.28 C-83.6 175.84 -79.2 178.1 -74.79 180.39 C-72.37 181.79 -70.9 183.03 -69 185 C-66.67 186.02 -64.34 187.01 -62 188 C-60.67 189 -59.33 190 -58 191 C-57.04 191.39 -56.08 191.78 -55.09 192.19 C-48.57 194.92 -42.56 198.73 -36.45 202.26 C-31.38 205.17 -26.4 207.77 -21 210 C-20 211 -19 212 -18 213 C-15.67 214.02 -13.34 215.01 -11 216 C-9.67 217 -8.33 218 -7 219 C-5.56 219.76 -4.1 220.49 -2.62 221.19 C2.4 223.63 7.21 226.37 12 229.23 C18.29 232.92 22.75 234.77 30 233 C32.86 231.79 35.54 230.33 38.25 228.81 C38.99 228.41 39.73 228 40.5 227.59 C41.98 226.77 43.46 225.96 44.94 225.14 C47.72 223.6 50.52 222.12 53.31 220.62 C55.73 219.33 57.92 218.06 60.11 216.39 C62 215 62 215 65 214.06 C68.06 213.22 68.06 213.22 69.94 211.06 C72.14 208.86 74.19 208.02 77.04 206.85 C80.33 205.43 83.47 203.71 86.62 202 C87.27 201.66 87.91 201.31 88.57 200.96 C92.97 198.6 97.26 196.09 101.5 193.44 C104 192 104 192 106.62 191 C109.02 190.18 109.02 190.18 110.38 188.5 C112 187 112 187 115.44 186.06 C119.3 184.91 120.28 183.81 123 181 C124.64 180.3 126.27 179.6 127.92 178.92 C131.9 177.16 135.65 174.95 139.44 172.81 C140.26 172.35 141.09 171.89 141.94 171.41 C143.96 170.28 145.98 169.14 148 168 C147.54 164.53 147.11 161.33 146 158 C144.33 157.5 142.65 157.01 140.95 156.59 C137.7 155.61 134.91 153.71 132 152 C129.74 150.75 127.48 149.5 125.22 148.25 C124.6 147.91 123.98 147.57 123.35 147.22 C121.4 146.15 119.45 145.07 117.5 144 C114.93 142.58 112.35 141.17 109.78 139.75 C108.08 138.81 108.08 138.81 106.35 137.86 C105.24 137.25 104.14 136.63 103 136 C102.37 135.65 101.74 135.31 101.09 134.95 C98.45 133.47 96.15 132.15 94 130 C92.07 129.3 90.13 128.6 88.2 127.91 C85.29 126.71 82.81 125.09 80.18 123.38 C77.76 121.85 75.28 120.48 72.75 119.12 C67.74 116.43 62.82 113.6 57.92 110.71 C54.63 108.78 51.31 106.89 48 105 C48 70.35 48 35.7 48 0 C53.63 -1.13 53.63 -1.13 57.25 0.98 C58.02 1.43 58.8 1.87 59.59 2.32 C60.78 3.03 60.78 3.03 62 3.75 C63.19 4.43 63.19 4.43 64.41 5.13 C67.54 6.94 70.65 8.79 73.75 10.67 C76.94 12.55 80.26 14.12 83.6 15.72 C85.94 16.97 87.89 18.41 90 20 C91.4 20.74 92.82 21.45 94.25 22.12 C99.05 24.47 103.72 27.01 108.38 29.62 C109.06 30.01 109.75 30.39 110.47 30.79 C113.83 32.69 116.91 34.68 120 37 C121.49 37.46 121.49 37.46 123 37.94 C126 39 126 39 127.94 41 C130.67 43.65 133.36 43.98 137 45 C137.74 45.6 138.48 46.2 139.24 46.82 C142.54 49.43 145.97 51.13 149.75 52.94 C151.18 53.64 152.61 54.34 154.04 55.04 C155.06 55.55 155.06 55.55 156.11 56.06 C161.01 58.5 165.71 61.13 170.25 64.19 C172.89 66.06 172.89 66.06 175.69 67.06 C178 68 178 68 179.4 69.46 C181.2 71.19 182.58 71.74 184.94 72.5 C188.16 73.54 190.32 74.96 193 77 C194.52 77.8 196.07 78.57 197.62 79.31 C202.16 81.53 206.44 84.02 210.74 86.65 C212.57 87.75 214.47 88.73 216.38 89.69 C219 91 219 91 220.94 92.5 C223.13 94.1 225.37 95.03 227.87 96.05 C233.04 98.35 238.45 100.98 242.89 104.5 C245.73 106.52 248.81 107.64 252 109 C254.17 110.27 256.32 111.59 258.44 112.94 C262.57 115.54 266.71 117.97 271.12 120.08 C273.25 121.12 275.31 122.27 277.38 123.44 C281.45 125.74 285.61 127.79 289.84 129.79 C291.97 130.98 293.31 132.26 295 134 C296.33 134.35 297.66 134.69 299 135 C300.73 138.47 300.15 142.49 300.16 146.31 C300.16 147.28 300.17 148.26 300.17 149.27 C300.19 152.57 300.2 155.86 300.21 159.16 C300.21 161.52 300.22 163.88 300.24 166.23 C300.26 171.99 300.28 177.75 300.3 183.51 C300.32 190.25 300.34 196.99 300.37 203.72 C300.42 215.78 300.46 227.84 300.5 239.9 C300.54 251.53 300.58 263.16 300.63 274.79 C300.63 275.51 300.63 276.22 300.64 276.95 C300.65 279.81 300.66 282.67 300.67 285.54 C300.72 298.71 300.77 311.88 300.82 325.06 C300.82 326.37 300.83 327.69 300.83 329.04 C300.94 358.36 301.04 387.68 301 417 C296.28 415.13 291.86 412.93 287.38 410.56 C286.61 410.17 285.85 409.77 285.06 409.37 C284.33 408.98 283.59 408.59 282.84 408.19 C282.17 407.84 281.51 407.49 280.82 407.14 C279 406 279 406 277.47 404.46 C275.1 402.11 272.05 401.26 269 400 C267.33 399.01 265.66 398.01 264 397 C262.13 396.07 260.25 395.14 258.38 394.21 C253.87 391.92 249.44 389.48 245 387.06 C243.58 386.29 243.58 386.29 242.13 385.51 C228.94 378.32 228.94 378.32 226 376 C226 375.34 226 374.68 226 374 C225.11 373.92 224.23 373.84 223.31 373.75 C219.5 372.89 218.01 371.43 215 369 C213.01 368.19 211.02 367.52 208.96 366.91 C206.1 365.58 204.9 364.6 203 362 C202.38 358.43 202.44 354.88 202.45 351.26 C202.44 350.17 202.43 349.08 202.42 347.95 C202.39 344.34 202.39 340.72 202.39 337.11 C202.38 334.6 202.36 332.1 202.34 329.59 C202.3 323.67 202.28 317.75 202.27 311.83 C202.25 304.43 202.2 297.02 202.16 289.62 C202.08 276.41 202.03 263.21 202 250 C196.26 250.7 196.26 250.7 191.03 252.96 C190.36 253.35 189.68 253.74 188.99 254.14 C188.31 254.55 187.64 254.96 186.94 255.38 C185.57 256.18 184.21 256.98 182.84 257.77 C182.19 258.16 181.54 258.54 180.87 258.93 C179.16 259.91 177.4 260.79 175.63 261.66 C172.93 262.87 172.93 262.87 171 265 C169.02 265.8 167.01 266.46 164.97 267.12 C162.92 267.89 162.92 267.89 161.5 269.54 C159.25 271.73 156.86 271.79 153.84 272.28 C153.23 272.52 152.63 272.75 152 273 C151.61 273.9 151.61 273.9 151.21 274.83 C149.33 278.21 146.07 279.25 142.69 280.81 C141.24 281.51 139.79 282.2 138.35 282.9 C137.26 283.42 137.26 283.42 136.15 283.96 C132.93 285.52 129.78 287.19 126.62 288.88 C125.59 289.43 124.55 289.98 123.48 290.55 C120.93 291.9 120.93 291.9 119 294 C117.33 294.43 117.33 294.43 115.62 294.88 C112 295.69 112 295.69 110 298 C108 300 108 300 104.44 301 C100.98 301.63 100.98 301.63 99.62 303.88 C97.39 306.79 94.83 307.54 91.48 308.93 C86.69 311 82 313.46 77.86 316.65 C76 318 76 318 74 318 C73.17 321.63 72.88 324.97 72.88 328.69 C72.88 329.82 72.88 330.96 72.88 332.13 C72.88 333.36 72.88 334.6 72.89 335.87 C72.89 337.83 72.89 337.83 72.89 339.83 C72.89 343.41 72.89 346.99 72.9 350.57 C72.9 354.31 72.91 358.05 72.91 361.79 C72.91 368.88 72.92 375.96 72.93 383.04 C72.94 391.11 72.94 399.17 72.95 407.24 C72.96 423.82 72.98 440.41 73 457 C74.61 457.03 76.22 457.04 77.83 457.06 C78.73 457.07 79.62 457.08 80.55 457.09 C83.48 456.98 85.29 456.33 87.75 454.75 C88.48 454.29 89.21 453.84 89.97 453.37 C90.64 452.92 91.31 452.47 92 452 C97.86 448.05 97.86 448.05 100.69 446.94 C103.03 446.17 103.03 446.17 104.39 444.54 C106.67 442.36 109.11 441.78 112.06 440.84 C114.25 439.89 115.36 438.7 117 437 C118.61 436.3 120.22 435.6 121.85 434.94 C126.39 432.95 130.67 430.41 135 428 C136.5 427.17 138 426.33 139.5 425.5 C140.22 425.1 140.93 424.7 141.67 424.29 C143.39 423.34 145.13 422.39 146.86 421.46 C147.84 420.94 148.81 420.41 149.81 419.88 C150.71 419.4 151.6 418.92 152.52 418.43 C155.01 417.07 155.01 417.07 157.14 415.38 C159 414 159 414 162 413.06 C165.07 412.22 165.07 412.22 167 410 C169.48 407.52 171.67 407.02 175 406 C175.87 405.42 176.73 404.85 177.62 404.25 C178.41 403.84 179.19 403.42 180 403 C181.87 403.78 181.87 403.78 184 405 C184.72 405.37 185.44 405.73 186.18 406.11 C196.13 411.23 206 416.36 215.41 422.44 C217.95 424.06 217.95 424.06 220.73 425.09 C223 426 223 426 224.88 428 C227.67 430.63 230.33 430.99 234 432 C236.03 433.29 238.03 434.63 240 436 C241.19 436.62 242.39 437.21 243.59 437.79 C249.24 440.57 254.61 443.81 260.02 447.02 C264.59 449.7 269.08 452.04 274 454 C274 454.66 274 455.32 274 456 C274.66 456 275.32 456 276 456 C274.7 459.91 272.46 461.1 269 463 C267.47 463.68 265.92 464.35 264.38 465 C261.61 466.17 260.08 466.92 257.94 469.06 C255.49 471.51 253.11 472.18 249.88 473.29 C247.56 474.17 245.94 475.48 244 477 C242.8 477.62 241.59 478.23 240.38 478.81 C237.14 480.38 234.07 482.12 231 484 C225.93 487.08 220.73 489.69 215.39 492.25 C214.5 492.68 213.61 493.12 212.69 493.56 C211.87 493.96 211.05 494.35 210.2 494.75 C207.97 495.88 207.97 495.88 206.43 497.59 C205 499 205 499 201.5 499.94 C197.98 500.63 197.98 500.63 196.56 502.94 C194.53 505.62 192.27 506.11 189.16 507.16 C186.97 508.01 185.21 509.03 183.25 510.31 C178.96 513.12 174.44 515.34 169.83 517.57 C167.13 518.93 164.58 520.43 162 522 C160.95 522.52 159.9 523.03 158.81 523.56 C155.95 524.84 155.95 524.84 154 527 C151.97 527.53 149.94 527.88 147.88 528.24 C145.83 528.82 145.83 528.82 145.21 530.83 C143.33 534.21 140.07 535.25 136.69 536.81 C135.23 537.51 133.77 538.21 132.32 538.91 C131.22 539.44 131.22 539.44 130.11 539.97 C126 541.98 122 544.21 117.98 546.4 C114.38 548.33 110.72 550.12 107.02 551.86 C104.94 552.9 104.94 552.9 103.45 554.61 C102 556 102 556 98.44 556.44 C97.3 556.62 96.17 556.81 95 557 C94.33 558.33 93.66 559.66 93 561 C91.18 562.2 91.18 562.2 88.88 563.25 C87.55 563.87 87.55 563.87 86.2 564.51 C85.14 565 84.09 565.49 83 566 C80.22 567.34 77.45 568.7 74.69 570.06 C74.01 570.39 73.32 570.72 72.62 571.06 C68.66 573.01 65.45 575.2 62 578 C59.83 578.94 59.83 578.94 57.81 579.56 C54.43 580.6 54.12 580.82 52 584 C50.89 584.31 49.77 584.62 48.62 584.94 C45.03 585.67 45.03 585.67 43.2 587.83 C40.49 590.5 37.49 592.12 34.12 593.81 C33.23 594.3 33.23 594.3 32.31 594.79 C28.08 596.94 25.52 597.4 21 596 C18.36 594.85 15.84 593.52 13.31 592.12 C12.65 591.77 11.99 591.42 11.3 591.06 C8.11 589.33 5.48 587.65 3 585 C0.68 583.97 -1.65 582.97 -4 582 C-5.67 581 -7.34 580 -9 579 C-10.72 578.13 -12.45 577.28 -14.19 576.44 C-21.91 572.61 -29.43 568.41 -36.93 564.16 C-38.3 563.39 -39.68 562.64 -41.06 561.91 C-45.89 559.32 -45.89 559.32 -47 556 C-47.87 555.92 -48.73 555.84 -49.62 555.75 C-53.54 554.88 -55.67 553.23 -59 551 C-61.45 549.73 -63.89 548.51 -66.38 547.31 C-74.77 543.2 -82.89 538.65 -91 534 C-92.32 533.24 -93.64 532.49 -94.96 531.73 C-95.97 531.16 -96.97 530.59 -98 530 C-98 529.34 -98 528.68 -98 528 C-99.61 527.88 -99.61 527.88 -101.25 527.75 C-105.53 526.89 -106.07 526.02 -109 523 C-110.31 522.35 -111.65 521.76 -113.01 521.2 C-118.19 518.97 -123.08 516.32 -128 513.56 C-128.84 513.1 -129.68 512.63 -130.54 512.15 C-132.21 511.23 -133.87 510.3 -135.54 509.37 C-137.19 508.45 -138.86 507.54 -140.52 506.64 C-141.32 506.21 -142.12 505.78 -142.94 505.34 C-143.65 504.96 -144.36 504.58 -145.09 504.19 C-147 503 -147 503 -148.57 501.41 C-150.04 499.75 -150.04 499.75 -152.88 499.06 C-156 498 -156 498 -158.38 496.06 C-161.07 493.94 -163.54 493.08 -166.73 491.93 C-170.82 490.26 -174.53 487.95 -178.31 485.69 C-179.99 484.7 -181.66 483.72 -183.34 482.73 C-184.14 482.26 -184.94 481.79 -185.77 481.3 C-189.39 479.19 -193.07 477.2 -196.77 475.22 C-198.4 474.33 -200.01 473.39 -201.6 472.44 C-204.07 470.91 -204.07 470.91 -207.06 469.5 C-210 468 -210 468 -211.94 466.5 C-214.1 464.8 -214.1 464.8 -217.38 463.62 C-221.35 461.84 -223.79 459.89 -227 457 C-225.62 454.23 -223.65 453.96 -220.9 452.85 C-218.04 451.57 -215.58 449.76 -213 448 C-211.01 446.98 -209.01 445.98 -207 445 C-203.05 442.86 -199.12 440.7 -195.31 438.31 C-193 437 -193 437 -189.94 436.06 C-186.91 435.21 -186.91 435.21 -185 432.94 C-183 431 -183 431 -180.06 430.56 C-176.05 429.82 -174.81 427.88 -172 425 C-170 424.32 -168 423.66 -166 423 C-163.76 421.6 -161.61 420.09 -159.44 418.59 C-156.19 416.47 -152.77 414.82 -149.26 413.18 C-146.96 411.98 -145.07 410.55 -143 409 C-140.67 408 -138.33 407 -136 406 C-135.32 405.4 -134.64 404.8 -133.94 404.19 C-132 403 -132 403 -129.31 403.5 C-124.4 405.73 -119.39 408.08 -115.16 411.47 C-112.3 413.49 -109.22 414.63 -106 416 C-104 417.19 -102.02 418.42 -100.06 419.69 C-94.51 423.21 -88.79 426.18 -82.89 429.06 C-77.69 431.61 -72.72 434.43 -67.76 437.4 C-64.28 439.42 -60.7 441.16 -57.06 442.86 C-54.96 444.02 -53.66 445.3 -52 447 C-50.44 447.68 -48.88 448.35 -47.29 448.97 C-43.09 450.85 -39.16 453.27 -35.18 455.57 C-31.82 457.08 -29.64 457.29 -26 457 C-24.71 454.42 -24.86 452.56 -24.85 449.67 C-24.84 448.54 -24.83 447.41 -24.82 446.24 C-24.82 444.99 -24.81 443.74 -24.81 442.46 C-24.8 441.15 -24.79 439.84 -24.78 438.49 C-24.76 434.15 -24.74 429.8 -24.73 425.45 C-24.72 423.95 -24.72 422.46 -24.71 420.96 C-24.69 414.74 -24.67 408.51 -24.66 402.29 C-24.64 393.37 -24.61 384.45 -24.55 375.52 C-24.51 369.25 -24.49 362.98 -24.49 356.71 C-24.49 352.96 -24.47 349.22 -24.44 345.47 C-24.41 341.29 -24.41 337.11 -24.42 332.93 C-24.4 331.69 -24.38 330.45 -24.37 329.17 C-24.32 322.54 -24.32 322.54 -27.33 316.82 C-30.44 314.7 -33.57 312.73 -36.88 310.94 C-38.06 310.28 -39.24 309.62 -40.43 308.96 C-41.01 308.64 -41.6 308.32 -42.2 307.99 C-50.67 303.33 -50.67 303.33 -53 301 C-54.98 300.2 -56.99 299.54 -59.03 298.88 C-61.22 297.9 -62.32 296.69 -64 295 C-65.83 294.15 -65.83 294.15 -67.81 293.56 C-71.67 292.21 -74.62 290.32 -78 288 C-82.76 285.29 -87.62 282.73 -92.46 280.16 C-94.18 279.25 -94.18 279.25 -95.94 278.31 C-97 277.75 -98.06 277.19 -99.15 276.61 C-101.62 275.22 -103.75 273.7 -106 272 C-108.33 270.98 -110.66 269.99 -113 269 C-114.67 268.01 -116.34 267.01 -118 266 C-119.85 264.98 -121.7 263.97 -123.56 262.97 C-124.61 262.41 -125.65 261.84 -126.73 261.26 C-128.35 260.39 -128.35 260.39 -130 259.5 C-132.15 258.34 -134.29 257.19 -136.44 256.03 C-137.38 255.52 -138.33 255.01 -139.31 254.49 C-141.12 253.49 -142.9 252.43 -144.64 251.33 C-147.6 249.66 -149.66 249.7 -153 250 C-154.21 250.99 -154.21 250.99 -154.12 252.88 C-154.12 254.12 -154.12 254.12 -154.12 255.38 C-154.12 256.33 -154.12 257.28 -154.12 258.25 C-154.12 259.3 -154.11 260.34 -154.11 261.42 C-154.11 263.7 -154.11 265.97 -154.11 268.24 C-154.11 269.45 -154.11 270.66 -154.11 271.91 C-154.1 278.29 -154.13 284.68 -154.15 291.06 C-154.18 299.2 -154.19 307.34 -154.18 315.47 C-154.16 322.04 -154.18 328.6 -154.22 335.16 C-154.23 337.67 -154.22 340.17 -154.21 342.68 C-154.19 346.18 -154.21 349.69 -154.24 353.19 C-154.23 354.23 -154.22 355.27 -154.2 356.34 C-154.24 359.03 -154.33 361.4 -155 364 C-157.92 366.62 -157.92 366.62 -161 368 C-162 368.47 -162 368.47 -163.01 368.94 C-163.56 369.15 -164.12 369.35 -164.69 369.56 C-167.93 370.7 -167.93 370.7 -169.5 372.62 C-171 374 -171 374 -174.56 374.44 C-175.7 374.62 -176.83 374.81 -178 375 C-178.31 375.62 -178.62 376.25 -178.93 376.89 C-180.33 379.66 -181.69 380.12 -184.5 381.38 C-188.17 383.09 -191.62 384.92 -195.06 387.06 C-198.94 389.44 -202.85 391.36 -207.04 393.12 C-209.19 394.03 -209.19 394.03 -211.75 395.69 C-214 397 -214 397 -216.69 397.44 C-217.45 397.62 -218.21 397.81 -219 398 C-219.29 398.64 -219.58 399.28 -219.88 399.94 C-221 402 -221 402 -224.38 403 C-225.57 403.33 -226.77 403.66 -228 404 C-228.57 404.59 -229.14 405.19 -229.73 405.8 C-232.79 408.77 -236.19 410.39 -240 412.25 C-241.07 412.8 -241.07 412.8 -242.16 413.35 C-243.19 413.87 -243.19 413.87 -244.25 414.39 C-244.87 414.7 -245.5 415.01 -246.14 415.33 C-248 416 -248 416 -252 416 C-252.07 380.64 -252.12 345.27 -252.15 309.91 C-252.16 305.73 -252.16 301.56 -252.16 297.39 C-252.17 296.56 -252.17 295.73 -252.17 294.87 C-252.18 281.41 -252.2 267.95 -252.23 254.49 C-252.26 240.68 -252.28 226.88 -252.28 213.07 C-252.29 204.55 -252.3 196.03 -252.32 187.5 C-252.34 181.66 -252.34 175.82 -252.34 169.99 C-252.34 166.61 -252.34 163.24 -252.36 159.87 C-252.37 156.22 -252.37 152.57 -252.36 148.91 C-252.37 147.84 -252.38 146.77 -252.39 145.66 C-252.38 144.69 -252.38 143.71 -252.37 142.71 C-252.37 141.87 -252.37 141.02 -252.37 140.16 C-251.91 137.49 -251.11 136.64 -249 135 C-247.33 134.33 -245.67 133.67 -244 133 C-243.55 132.53 -243.09 132.05 -242.62 131.56 C-240.64 129.66 -238.49 128.93 -235.98 127.88 C-232.61 126.38 -229.45 124.53 -226.25 122.69 C-224.84 121.88 -223.43 121.08 -222.02 120.28 C-221.33 119.89 -220.65 119.5 -219.94 119.1 C-217.31 117.61 -214.66 116.18 -212 114.75 C-208.81 113.03 -205.73 111.22 -202.69 109.25 C-200.28 107.7 -198.53 106.85 -195.75 105.94 C-192.9 105.19 -192.9 105.19 -191 103 C-188.51 100.51 -186.32 100.06 -183 99 C-180.98 97.7 -178.98 96.36 -177 95 C-175.01 93.98 -173.01 92.98 -171 92 C-168.78 90.79 -166.58 89.56 -164.38 88.33 C-162.78 87.43 -161.17 86.55 -159.56 85.67 C-158.78 85.24 -158 84.82 -157.19 84.38 C-156.48 83.99 -155.77 83.61 -155.04 83.21 C-152.95 82.03 -152.95 82.03 -150.99 80.45 C-148.44 78.59 -145.88 77.8 -142.9 76.84 C-140.91 76.1 -140.91 76.1 -139.47 74.46 C-138 73 -138 73 -134.56 72.06 C-130.7 70.91 -129.72 69.81 -127 67 C-124.68 65.97 -122.35 64.96 -120 64 C-118.66 63.01 -117.32 62.01 -116 61 C-114.33 60.33 -112.67 59.67 -111 59 C-106.79 56.81 -102.73 54.5 -98.81 51.81 C-96 50 -96 50 -92.88 49 C-89.9 48.21 -89.9 48.21 -88 45.94 C-86 44 -86 44 -83.06 43.56 C-79.05 42.82 -77.81 40.88 -75 38 C-73.01 37.29 -71.01 36.63 -69 36 C-67.04 34.88 -65.17 33.66 -63.29 32.43 C-59.79 30.25 -56.15 28.35 -52.52 26.43 C-50 25.07 -50 25.07 -47.89 23.38 C-46 22 -46 22 -42.5 21.06 C-38.7 19.91 -37.69 18.77 -35 16 C-32.68 14.97 -30.35 13.96 -28 13 C-26.65 12.02 -25.32 11.02 -24 10 C-22 9 -20 8 -18 7 C-16.74 6.31 -15.49 5.62 -14.24 4.92 C-13.59 4.57 -12.95 4.21 -12.29 3.84 C-10.96 3.11 -9.63 2.36 -8.3 1.61 C-3.34 -1.11 -3.34 -1.11 0 0 Z " fill="#FCFCFC" transform="translate(615,342)"/>
</svg>
